<svg xmlns="http://www.w3.org/2000/svg" width="494" height="494"><path fill="#dbeef5" d="m262 1 2.644.042c11.98.26 23.66 2.512 35.356 4.958l2.548.53c38.315 8.222 76.291 26.735 105.167 53.368a200 200 0 0 0 6.098 5.352C423.437 73.667 432.189 82.881 440 93l1.37 1.728C453.393 109.906 462.762 126.511 471 144l.92 1.938c5.042 10.713 8.793 21.697 12.08 33.062l.746 2.52c4.805 16.794 8.014 34.988 8.254 52.48l.042 2.436c.727 48.082-8.943 94.008-34.042 135.564l-1.629 2.762c-9.488 15.528-20.814 29.468-33.567 42.403a370 370 0 0 0-4.769 4.952c-6.255 6.485-12.977 12.039-20.15 17.452a463 463 0 0 0-5.772 4.474c-8.287 6.443-16.733 11.942-26.015 16.837a311 311 0 0 0-6.414 3.546c-18.361 10.213-38.011 17.675-58.547 22.111-1.978.429-3.949.89-5.918 1.354-16.273 3.738-32.156 4.485-48.781 4.421l-3.093-.006c-14.625-.05-28.981-.289-43.345-3.306l-3.002-.618C165.303 481.47 133.372 469.477 106 450q-1.76-1.22-3.523-2.437c-6.9-4.803-13.3-9.847-19.477-15.563a1368 1368 0 0 0-3.625-3.062C69.036 419.883 59.295 409.96 51 399l-1.41-1.819C29.203 370.787 14.84 340.401 7 308l-.58-2.386a280 280 0 0 1-2.982-14.226 330 330 0 0 0-.896-4.694C-2.824 259.064-1.966 228.404 4 201q.551-2.777 1.098-5.555C13.464 154.502 32.2 116.223 60 85l1.58-1.836c4.424-5.133 9.068-9.996 13.858-14.789l2.158-2.195C82.116 61.648 86.792 57.712 92 54q2.004-1.495 4-3l2.02-1.508a252 252 0 0 0 3.804-2.922c5.493-4.26 11.306-7.915 17.286-11.452q1.923-1.138 3.834-2.29C165.484 7.302 213.23.13 262 1"/><path fill="#212b36" d="M190.625 82.563C197.903 86.81 202.586 90.816 205 99l1.997-.703c27.185-9.499 52.943-13.394 80.429-2.637 2.906 1.09 5.522 1.862 8.574 2.34l1.066-1.54C302.501 88.885 308.681 82.35 318 80c11.266-1.269 20.67.029 30.27 6.54 6.5 5.244 13.002 12.78 14.515 21.21 1.183 12.389-.177 22.656-8.21 32.531-3.733 4.076-7.355 6.765-12.575 8.719l1.094 3.395 1.406 4.417.723 2.237c.976 3.084 1.777 5.696 1.777 8.951l2.688.125c4.504 1.19 5.855 2.972 8.312 6.875.313 3.875.313 3.875 0 7l-5-1-1-6-4-1 .488 1.957c3.053 18.154-.97 37.886-11.488 53.043a110 110 0 0 1-12 12h-2c1.706 3.412 3.737 5.759 6.5 8.313 8.554 8.396 14.933 18.857 20.063 29.625l.976 2.038c4.814 10.608 6.532 22.594 2.899 33.837-2.738 6.613-6.628 12.117-13.313 15L337 332l-1 11h27l-1-4a186 186 0 0 1-.168-7.54l-.01-2.187q-.007-2.282-.007-4.564c-.002-2.333-.02-4.665-.04-6.998q-.005-2.219-.005-4.438l-.022-2.118c.023-4.926.023-4.926 2.252-7.155 2.713-.187 5.322-.256 8.035-.23h2.406q2.517.006 5.036.024c2.579.018 5.157.02 7.736.02l4.885.018 2.351.003c5.435.049 5.435.049 6.551 1.165q.062 3.5 0 7l3.125.063c4.46 1.079 6.037 2.28 8.773 5.835 1.933 3.687 1.859 7.075 1.102 11.102-1.746 4.227-3.925 6.012-8 8l-2.187.375L402 338a80 80 0 0 0-2 5l2.887-.105 3.8-.082 3.762-.106c4.704.388 7.097 1.775 10.324 5.145 2.37 4.15 2.135 8.555 1.227 13.148-1.826 2.986-3.732 4.745-7 6-3.01.185-5.988.134-9 0l.095 2.551c.103 3.151.178 6.302.235 9.455q.044 2.038.123 4.076c.477 12.737.477 12.737-3.234 17.129A61 61 0 0 1 400 403l-2.055 2.004C385.103 416 385.103 416 382 416v-49h-48l-2 9-1 2 2.25.688c3.48 1.66 4.822 2.956 6.75 6.312.871 4.769.453 8.11-1.75 12.438-2.087 2.376-3.28 3.604-6.25 4.562h-3l1 16h-6c-.853-3.674-1.108-7.045-1.062-10.812l.027-2.958L323 402h-10l-.375 4.625c-.348 4.295-1.196 7.088-2.625 11.375h-55v-16h-13v16h-55c-3-11-3-11-3-16h-9l-.184 2.773-.254 3.602-.246 3.586C174 415 174 415 173 417h-5v-15l-5-1c-3.305-2.791-4.708-4.406-5.488-8.668-.228-4.822-.133-7.47 2.738-11.457 2.487-1.696 3.9-2.278 6.75-2.875l-.656-1.645-.844-2.168-.844-2.144C164 370 164 370 164 367h-49v50c-3.577-1.789-6.118-3.551-9.187-6.062l-2.668-2.16-1.438-1.285a71 71 0 0 0-4.057-3.262c-3.93-3.277-6.328-5.65-7.37-10.767-.165-4.048-.07-7.987.157-12.026q.069-2.107.124-4.213c.105-3.412.253-6.817.439-10.225l-5.92.177c-3.433-.292-5.498-2.025-8.08-4.177-2.83-4.246-2.774-8.015-2-13 1.884-3.623 4.07-5.69 8-7 2.739-.07 5.45-.094 8.188-.062l2.271.013q2.77.02 5.541.049l.313-3.25c.687-3.75.687-3.75 2.226-5.766 2.108-2.863 1.798-5.223 1.836-8.734.413-7.52 1.972-11.552 7.207-16.852 4.707-3.999 10.192-6.115 15.962-8.13 8.622-3.124 12.34-8.07 16.706-15.705 8.926-15.061 18.627-29.959 33.133-40.223L178 243v-2a61 61 0 0 0-3.437-2.875C162.274 227.533 155.334 212.95 153 197c-.218-4.026-.191-8.032-.125-12.062l.027-3.202q.036-3.868.098-7.736c-3.814 2.581-4.807 4.526-6 9l-4-1c-.576-3.289-.42-5.339 1.383-8.18C147.77 169.7 147.77 169.7 150 168c2.738-.227 2.738-.227 5 0 .182-.785.364-1.57.55-2.379 1.392-5.815 2.873-11.221 5.45-16.621l-2.5-.562c-8.636-3.547-14.02-10.822-18.312-18.813-2.674-7.852-2.747-19.122.562-26.812A71 71 0 0 1 143 99l1.813-3.125c10.849-14.26 28.776-21.379 45.812-13.312"/><path fill="#7c472e" d="M190 90c6.675 3.97 9.688 10.182 13 17l2.082-.848C239.06 92.734 266.012 94.567 300 107l.367-1.758c2.128-7.538 7.76-13.5 14.473-17.277 7.202-3.167 15.001-3.02 22.348-.403C345.124 91.14 350.283 96.857 355 104l1.61 1.8c2.968 4.696 1.914 10.873 1.39 16.2-1.04 4.135-2.382 8.057-4 12h-2v2h-2l-.562 1.75c-2.6 4.07-6.844 5.843-11.375 7L336 145l1 9h2c3.72 9.963 3.72 9.963 3 15-1.5 1.875-1.5 1.875-3 3l3 2c.404 2.392.404 2.392.434 5.39l.034 3.32-.03 3.54-.023 3.586C342.07 208.073 335.988 221.164 323 234c-5.835 5.33-12.308 8.897-19.375 12.324-2.767 1.406-2.767 1.406-3.5 3.883L300 252c5.179-.432 8.585-1.612 13.008-4.355 1.992-.645 1.992-.645 4.504.039 14.29 7.56 24.194 27.823 29.648 42.421 2.392 7.888 3.334 16.208-.16 23.895-4.09 7.16-9.31 11.378-16.922 14.285-6.257 1.453-12.699 1-19.078.715-.334-10.49.694-20.609 2-31 7.295-3.402 7.295-3.402 11.938-3.187l2.34.082L329 295v-5l-15 1 .14-5.73q.057-3.73.11-7.457l.102-3.776.039-3.642.063-3.349c-.564-3.783-1.73-5.398-4.454-8.046-3.093-1.07-6.014-1.132-9.269-1.147l-3.233-.022-3.531-.008-3.731-.02q-6.116-.028-12.232-.041l-4.216-.013q-9.9-.029-19.8-.041-11.423-.015-22.844-.077-8.835-.044-17.67-.048c-3.515-.002-7.031-.011-10.548-.036-3.921-.028-7.842-.024-11.764-.017l-3.525-.039c-6.221-.002-6.221-.002-11.835 2.413-6.654 7.737-2.51 26.499-1.802 36.409.368 5.227.71 10.454 1 15.687l.19 3.309c.033.977.065 1.954.1 2.96l.1 2.547c-.52 2.913-1.694 3.801-4.015 5.559-7.83 4.28-16.54 7.378-25.375 8.625l-2-4 3-2c.724-2.06.724-2.06 1-4h-6l-1 3c-1.848 1.168-1.848 1.168-4.062 2.188L133 332l1-11-3 1c-1.03 2.56-1.03 2.56-1.687 5.563l-.762 3.066L128 333h-9c-.125-7.625-.125-7.625 1-11h-3l-3 10c-4-3-4-3-4.602-5.234-.042-4.535.138-7.909 2.977-11.579 5.756-5.755 13.784-8.401 21.3-11.097 5.642-2.645 8.747-6.764 12.012-11.902l1.297-1.986c1.781-2.727 3.543-5.466 5.304-8.206C157.634 273.703 163.075 266.09 170 259l2.61-2.727c7.743-7.95 7.743-7.95 12.39-10.273 2.375.625 2.375.625 5 2 4.004 1.787 7.652 3.341 12 4-.01-1.893-.01-1.893-1-4a65 65 0 0 0-6.437-3.75c-16.49-8.97-27.106-21.137-32.985-39.047-1.386-5.283-1.706-10.345-1.71-15.797l-.004-2.15q0-2.24.006-4.478c.005-2.271 0-4.542-.007-6.813q0-2.185.004-4.371l.004-3.979c.118-3.302.498-6.376 1.129-9.615h-2l-1 2v-3l6-3v-8c-.52-.23-1.039-.461-1.574-.7-.698-.325-1.395-.651-2.113-.988l-2.075-.949c-5.483-3.34-8.294-7.67-10.55-13.55l-.777-2.013c-3.16-8.66-2.813-15.546.648-24.058 4.454-8.474 10.533-13.768 19.53-16.965 8.359-2.232 15.187-.516 22.911 3.223"/><path fill="#304050" d="m262 1 2.644.042c11.98.26 23.66 2.512 35.356 4.958l2.548.53c38.315 8.222 76.291 26.735 105.167 53.368a200 200 0 0 0 6.098 5.352C423.437 73.667 432.189 82.881 440 93l1.37 1.728C453.393 109.906 462.762 126.511 471 144l.92 1.938c5.042 10.713 8.793 21.697 12.08 33.062l.746 2.52c4.805 16.794 8.014 34.988 8.254 52.48l.042 2.436c.727 48.082-8.943 94.008-34.042 135.564l-1.629 2.762c-9.488 15.528-20.814 29.468-33.567 42.403a370 370 0 0 0-4.769 4.952c-6.255 6.485-12.977 12.039-20.15 17.452a463 463 0 0 0-5.772 4.474c-8.287 6.443-16.733 11.942-26.015 16.837a311 311 0 0 0-6.414 3.546c-18.361 10.213-38.011 17.675-58.547 22.111-1.978.429-3.949.89-5.918 1.354-16.273 3.738-32.156 4.485-48.781 4.421l-3.093-.006c-14.625-.05-28.981-.289-43.345-3.306l-3.002-.618C165.303 481.47 133.372 469.477 106 450q-1.76-1.22-3.523-2.437c-6.9-4.803-13.3-9.847-19.477-15.563a1368 1368 0 0 0-3.625-3.062C69.036 419.883 59.295 409.96 51 399l-1.41-1.819C29.203 370.787 14.84 340.401 7 308l-.58-2.386a280 280 0 0 1-2.982-14.226 330 330 0 0 0-.896-4.694C-2.824 259.064-1.966 228.404 4 201q.551-2.777 1.098-5.555C13.464 154.502 32.2 116.223 60 85l1.58-1.836c4.424-5.133 9.068-9.996 13.858-14.789l2.158-2.195C82.116 61.648 86.792 57.712 92 54q2.004-1.495 4-3l2.02-1.508a252 252 0 0 0 3.804-2.922c5.493-4.26 11.306-7.915 17.286-11.452q1.923-1.138 3.834-2.29C165.484 7.302 213.23.13 262 1M86 80l-1.507 1.425c-7.439 7.058-13.936 14.563-20.102 22.751a244 244 0 0 1-3.05 3.91C46.788 126.416 35.582 147.877 28 170l-.717 2.066A222.7 222.7 0 0 0 18 209l-.54 3.163c-1.75 11.374-1.857 22.662-1.835 34.15v3.08c.034 15.895.928 31.041 4.375 46.607l.519 2.573C24.717 319.324 32.887 339.446 43 358l1.852 3.48C54.427 378.918 66.578 395.266 81 409c5 5 5 5 6.488 6.629C98.178 426.982 111.675 436.009 125 444l1.804 1.091c37.212 22.308 77.115 32.256 120.259 32.346l2.868.019c12.977.054 25.324-1.031 38.069-3.456l3.086-.556c2.313-.43 4.614-.89 6.914-1.382l2.378-.503c5.16-1.135 10.095-2.552 15.005-4.532 2.25-.883 4.49-1.644 6.789-2.386 32.088-10.6 61.48-29.293 85.316-53.13q2.55-2.548 5.168-5.027C425.39 394.242 435.612 379.914 445 365l2.008-3.168C461.909 337.067 470.003 310.239 475 282l.573-2.913c1.86-10.305 1.78-20.59 1.74-31.024l-.006-2.901c-.045-13.918-.42-27.5-3.307-41.162l-.52-2.576c-12.722-61.813-49.37-114.603-101.66-149.549-3.23-2.039-6.5-3.988-9.82-5.875l-2.044-1.167C338.29 32.609 314.498 23.5 290 19l-2.1-.386c-12.518-2.232-24.717-3.09-37.426-3.005-2.841.016-5.68 0-8.52-.02C183.536 15.526 127.957 39.839 86 80"/><path fill="#28282d" d="m369.69 303.748 2.345.022h2.406q2.517.006 5.036.024c2.579.018 5.157.02 7.736.02l4.885.018 2.351.003c5.435.049 5.435.049 6.551 1.165q.061 3.5 0 7l3.125.062c4.46 1.08 6.037 2.28 8.773 5.836 1.933 3.687 1.859 7.075 1.102 11.102-1.746 4.227-3.925 6.012-8 8l-2.187.375L402 338a80 80 0 0 0-2 5l2.887-.105 3.8-.083 3.762-.105c4.704.388 7.097 1.775 10.324 5.145 2.37 4.15 2.135 8.555 1.227 13.148-1.826 2.986-3.732 4.745-7 6-3.01.185-5.988.134-9 0l.095 2.551c.103 3.151.178 6.302.235 9.455q.044 2.038.123 4.076c.477 12.737.477 12.737-3.234 17.129A61 61 0 0 1 400 403l-2.055 2.004C385.103 416 385.103 416 382 416v-49h-48l-2 9-1 2 2.25.687c3.48 1.662 4.822 2.957 6.75 6.313.871 4.769.453 8.11-1.75 12.437-2.087 2.377-3.28 3.605-6.25 4.563h-3l1 16h-6c-.853-3.674-1.108-7.045-1.062-10.813l.027-2.957L323 402h-10l-.375 4.625c-.348 4.295-1.196 7.088-2.625 11.375h-55v-16h-13v16h-55c-3-11-3-11-3-16h-9l-.184 2.773-.253 3.602-.247 3.586C174 415 174 415 173 417h-5v-15l-5-1c-3.305-2.791-4.708-4.406-5.488-8.668-.228-4.822-.133-7.47 2.738-11.457 2.487-1.696 3.9-2.278 6.75-2.875l-.656-1.645-.844-2.168-.844-2.144C164 370 164 370 164 367h-49v50c-3.577-1.789-6.118-3.551-9.187-6.063l-2.668-2.16-1.438-1.284a71 71 0 0 0-4.057-3.262c-3.93-3.277-6.328-5.65-7.37-10.767-.165-4.048-.07-7.987.158-12.027q.067-2.106.123-4.212c.105-3.412.253-6.817.439-10.225l-3.79.105c-4.455.124-6.82-1.118-10.21-4.105-1.5-2.375-1.5-2.375-2-5 .875-3.313.875-3.313 2-6h2l.75-1.938C81 348 81 348 82.838 347.38c3.58-.627 7.182-.508 10.805-.493h2.671c2.961 0 5.921.009 8.882.016l6.362.005q6.859.005 13.718.018 10.864.019 21.728.024c16.7.012 33.399.034 50.098.056q22.905.032 45.812.048 10.779.008 21.557.029 6.743.01 13.484.013 3.102.003 6.205.01c9.531.025 19.059-.004 28.582-.424l2.153-.067c2.167-.082 2.167-.082 5.105-.614l2-3c1.945-.293 1.945-.293 4.125-.188L330 343v-6h1l1 5 4-1v2h27l-1-4a186 186 0 0 1-.168-7.54l-.01-2.187q-.007-2.282-.007-4.564c-.002-2.333-.02-4.665-.04-6.998q-.005-2.219-.005-4.438l-.022-2.118c.03-6.484 1.58-7.38 7.942-7.407"/><path fill="#9e603b" d="M190 90c6.675 3.97 9.688 10.182 13 17l2.082-.848C239.06 92.734 266.012 94.567 300 107l.367-1.758c2.128-7.538 7.76-13.5 14.473-17.277 7.202-3.167 15.001-3.02 22.348-.403C345.846 91.494 351.12 97.408 355 106c2.453 7.358 2.175 16.66-1.25 23.625A99 99 0 0 1 351 134l-1.75 2.813c-4.21 4.093-9.489 6.982-15.25 8.187.644 4.778 1.963 9.159 3.563 13.688C340 165.598 340 165.598 340 169a3684 3684 0 0 1-9.687 3.438l-2.764.986-2.686.947-2.46.873c-2.45.771-4.876 1.298-7.403 1.756l-1.066-2.195c-4.438-8.69-8.874-13.927-17.934-17.805-8.37-1.1-16.755-.606-24 4-5.301 4.538-7.993 9.39-10 16l-2.25-.5c-7.582-1.011-15.225-.868-22.75.5-.22-.568-.438-1.137-.664-1.723-2.948-7.178-6.303-12.982-13.336-16.714-7.261-2.851-16.193-2.84-23.562-.313-7.946 4.045-12.613 10.274-15.438 18.75-4.93-.519-9.052-2.128-13.586-4.012-2.764-1.131-5.566-2.089-8.414-2.988.85-9.182 3.062-17.168 8-25l-1.687-.227c-7.571-1.304-12.203-4.663-17.563-10.023-5.216-8.196-7.23-15.917-5.16-25.473 2.615-8.567 7.578-15.424 15.347-20.011 10.556-4.793 18.67-4.296 29.063.734"/><path fill="#505d68" d="m186.162 262.499 3.16-.03 3.451.03 3.648-.017q4.946-.013 9.892.014c3.452.013 6.904.007 10.356.003q8.696-.002 17.392.034c6.7.027 13.4.029 20.101.017q9.672-.014 19.344.01 4.114.007 8.229 0c3.83-.005 7.661.014 11.492.036l3.45-.014 3.161.03 2.744.008c2.918.459 4.31 1.333 6.418 3.38.25 2.687.25 2.687 0 5l-7-1-.75 1.75c-1.433 2.58-3.034 4.311-5.25 6.25h-2l-.687 1.672c-1.7 3.015-3.861 5.14-6.313 7.578l-2.687 2.703C282 292 282 292 280 292v2h-2v2a105 105 0 0 1-5.875 4.625l-1.684 1.273C266.262 305 266.262 305 264 305v2c-1.355 1.184-1.355 1.184-3.187 2.437l-1.793 1.247c-2.305 1.502-4.656 2.91-7.02 4.316l-2.48 1.543C229.83 328.505 205.387 338.896 182 338a2286 2286 0 0 1-3.302-46.795l-.233-3.85-.212-3.717q-.256-3.675-.674-7.335l-.388-3.502-.396-3.1C177 267 177 267 178.69 264.862c2.757-2.223 3.975-2.363 7.472-2.364"/><path fill="#2d2929" d="M355 104c4.03 4.361 3.472 8.55 3.371 14.227-.551 5.607-2.242 10.583-4.371 15.773h-2v2h-2l-.562 1.75c-2.6 4.07-6.844 5.843-11.375 7L336 145l1 9h2c3.72 9.963 3.72 9.963 3 15-1.5 1.688-1.5 1.688-3 3v3c-3.08 1.177-6.164 2.34-9.25 3.5l-2.645 1.012-2.558.957-2.349.888C320 182 320 182 316 182l-.25 2.875c-1.342 8.744-4.459 14.913-11.406 20.496-7.184 4.993-14.69 5.86-23.344 4.629-8.589-2.983-13.878-8.017-18.023-15.96-1.298-2.823-1.977-4.912-1.977-8.04-6.605-2.202-12.615-3.235-19.25-.625-4.359 2.38-5.3 5.628-6.844 10.16-2.357 6.411-6.977 9.408-12.722 12.485-6.82 3.062-14.833 2.93-21.934.917-6.912-4.12-13.056-9.386-16.25-16.937l-.184-2.102c-.28-2.62-.64-4.53-1.816-6.898-3.456-2.3-7.167-3.389-11.125-4.562l-3.152-1.034A316 316 0 0 0 160 175q-.02-2.634-.031-5.27l-.018-2.964c.053-3.003.414-5.83 1.049-8.766h-2l-1 2v-3l6-3v-8l-1.574-.7c-4.711-2.202-7.97-4.412-11.426-8.3l1-2 2.688 2.313c4.84 4.003 9.174 6.122 15.312 7.687-2 6-2 6-2.695 8.05-1.895 5.615-3.632 11.266-5.305 16.95l2.273.516c6.858 1.623 13.267 3.668 19.727 6.484l.344-2.223c1.806-7.645 7.069-12.617 13.508-16.683 6.778-3.451 15.918-3.352 23.078-1.223 7.806 3.618 12.814 9.17 16.07 17.129v3l2.75-1c7.137-2.035 15.433-2.03 22.25 1l.25-2.625c1.531-6.89 6.123-11.442 11.75-15.375 6.646-3.988 14.496-3.895 22-3 8.245 2.62 13.742 9.066 17.938 16.375C315 175 315 175 315 177l1.649-.627q3.736-1.411 7.476-2.81l2.594-.987c4.421-1.65 8.561-3.027 13.281-3.576l-.658-1.864c-.98-2.792-1.942-5.589-2.904-8.386l-1.038-2.934-.966-2.832-.905-2.602c-.573-2.58-.528-3.949.471-6.382 2.11-1.09 2.11-1.09 4.75-1.937 7.695-2.835 11.43-8.042 15.25-15.063 1.18-3.541 1.146-6.754 1.125-10.437l.008-3.997c-.104-2.793-.416-4.914-1.133-7.566z"/><path fill="#9d603c" d="M161 175c3.362.915 6.68 1.945 10 3l3.23.926c8.083 2.707 8.083 2.707 10.055 6.633a88 88 0 0 1 1.235 5.796c1.266 6.971 7.042 11.604 12.48 15.645 5.942 3.106 13.886 2.94 20.344 1.465 7.954-2.8 12.832-6.999 16.656-14.465l1.313-3.75c2.001-3.855 3.597-4.932 7.507-6.594 5.143-1.548 10.648-1.413 15.586.899 3.028 2.745 4.052 6.653 5.356 10.437 1.994 4.844 4.09 7.444 8.8 9.758 3.022 1.634 4.16 3.033 5.375 6.25 2.28 8.73 2.183 16.915-2.312 24.871-3.696 4.842-9.01 7.12-14.625 9.129-2.587.319-2.587.319-5.3.414l-2.96.117-3.053.094-3.11.117q-3.788.141-7.577.258l4 2c-10.46.58-19.013-.753-29-4l-3.309-1.062C197.786 238.036 185.42 230.456 176 219v-2l-1.746-.566c-3.254-2.07-4.606-5.03-6.316-8.371l-1.061-2.053c-5.222-10.395-6.335-19.385-5.877-31.01"/><path fill="#b0774e" d="m89.517 348.748 3.498-.015 3.86.013q2.044-.003 4.087-.01c3.752-.008 7.504-.004 11.256.003 4.043.004 8.086-.003 12.129-.008a12812 12812 0 0 1 23.77-.002q9.654.007 19.31.003h2.772l5.575-.003q26.159-.006 52.318.012 22.466.013 44.93-.002a53792 53792 0 0 1 57.685-.007l2.76.001q9.65.003 19.299-.006 11.751-.009 23.502.007 6 .009 12 0 5.485-.007 10.971.009c1.96.003 3.92-.004 5.88-.01l3.49.015 3.03.001C414 349 414 349 416 351c.3 1.875.3 1.875.313 4l.05 2.125L416 359c-3.388 2.259-4.53 2.251-8.499 2.254-1.725.01-1.725.01-3.485.018l-3.847-.011-4.072.011c-3.739.01-7.477.008-11.216.004-4.029-.002-8.057.007-12.086.014q-11.842.018-23.686.012a20425 20425 0 0 0-27.564.01q-26.072.013-52.145.003c-15.915-.006-31.83.006-47.745.025q-24.491.03-48.983.024-13.758-.005-27.517.014-11.711.019-23.423.002a2672 2672 0 0 0-11.958.005q-5.468.014-10.936-.007a748 748 0 0 0-5.854.019l-3.485-.022h-3.02C84 361 84 361 82.179 359.699c-1.97-2.838-1.542-5.375-1.179-8.699 3.393-2.262 4.54-2.25 8.517-2.252"/><path fill="#242b34" d="M190.625 82.563C197.903 86.81 202.586 90.816 205 99l1.997-.703c27.185-9.499 52.943-13.394 80.429-2.637 2.906 1.09 5.522 1.862 8.574 2.34l1.066-1.54C302.501 88.885 308.681 82.35 318 80c11.266-1.269 20.67.029 30.27 6.54 6.5 5.244 13.002 12.78 14.515 21.21 1.183 12.389-.177 22.656-8.21 32.531-3.733 4.076-7.355 6.765-12.575 8.719l1.094 3.395 1.406 4.417.723 2.237c.976 3.084 1.777 5.696 1.777 8.951l2.688.125c4.504 1.19 5.855 2.972 8.312 6.875.313 3.875.313 3.875 0 7l-5-1-1-6-4-1 .488 1.957c3.053 18.154-.97 37.886-11.488 53.043a110 110 0 0 1-12 12h-2c1.706 3.412 3.737 5.759 6.5 8.313 8.554 8.396 14.933 18.857 20.063 29.625l.976 2.038c4.828 10.639 6.547 22.643 2.836 33.899-2.005 4.925-4.673 8.339-8.375 12.125l-3-2c-2.374 1.056-4.551 2.178-6.812 3.438-7.561 3.908-13.743 4.68-22.188 2.562l-1-2 2.93-.078c11.435-.498 20.918-2.157 29.07-10.922 4.417-6.036 4.686-12.74 4-20-3.754-18.222-14.681-37.261-29.23-49.055-1.9-1.232-1.9-1.232-4.895-.57L311 250c-3.94 2.09-6.496 3.397-11 3-.687-1.812-.687-1.812-1-4 2.304-2.99 5.252-4.199 8.625-5.75 14.83-7.28 25.781-18.853 31.18-34.597 2.272-7.45 2.73-14.586 2.882-22.34l.104-3.608q.123-4.352.209-8.705l-4-2 1.5-1.125c2.175-2.72 1.83-4.45 1.5-7.875a192 192 0 0 0-2-7v-2h-2l-1-9 4.188-1.687c4.256-1.868 6.704-3.922 9.812-7.313h2v-2h2l.375-2.625c.625-3.375.625-3.375 1.629-6.16 1.967-6.35 2.722-13.864-.395-19.914-1.754-2.247-3.616-4.266-5.609-6.301l-2.312-3.25c-5.417-5.543-13.076-8.853-20.813-9.062-8.029.095-14.374 3.092-20.3 8.453-2.975 3.512-4.772 7.656-6.575 11.859-4.985-.629-9.244-2.098-13.875-3.937-23.978-9.495-49.172-7.57-73.125.937a99 99 0 0 0-4.812 2.375L205 108c-3-1-3-1-4.324-3.293l-1.363-2.894c-3.757-7.135-8.25-10.84-15.75-13.688-8.355-2.367-14.778-1.392-22.692 2.207-7.47 4.34-11.731 10.765-14.238 18.93-2.437 10.543 1.195 18.203 5.367 27.738l1 3c1.822 1.12 1.822 1.12 4 2l8 4c.437 5.327.437 5.327 0 8-2.375 2.063-2.375 2.063-5 3l-2-1 3-7-2.5-.562c-8.636-3.547-14.02-10.822-18.312-18.813-2.674-7.852-2.747-19.122.562-26.812A71 71 0 0 1 143 99l1.813-3.125c10.849-14.26 28.776-21.379 45.812-13.312"/><path fill="#3c4756" d="M304 269c2.188.313 2.188.313 4 1 1.264 4.698.94 9.08.625 13.875l-.133 2.355c-.209 3.458-.502 6.836-1.004 10.266-.59 4.234-.76 8.423-.925 12.692-.336 7.304-.787 14.59-1.438 21.875-.066.85-.133 1.7-.2 2.576l-.23 2.396-.187 2.106c-.663 2.427-1.547 3.292-3.508 4.859-2.157.378-2.157.378-4.706.381l-2.932.026-3.212-.019-3.385.016c-3.703.013-7.406.005-11.109-.006q-3.85.003-7.7.01-8.076.005-16.15-.017c-6.226-.016-12.451-.01-18.676.006-5.987.015-11.974.013-17.961.004q-3.823-.004-7.646.008c-3.558.007-7.115-.004-10.673-.02l-3.212.018-2.932-.026-2.55-.003c-2.647-.464-3.556-1.253-5.156-3.378v-2l3.453-.445c20.59-2.843 39.335-9.092 57.735-18.743l1.928-1.009c3.061-1.65 5.524-3.258 7.884-5.803 3.167-2.087 6.393-3.798 10-5v-2a92 92 0 0 1 5.313-4.062l2.988-2.16C275 297 275 297 278 296v-2h2v-2c1.54-1.48 1.54-1.48 3.625-3.187 2.732-2.315 5.167-4.607 7.438-7.375 2.516-3.06 5.261-5.572 8.324-8.079 1.668-1.35 1.668-1.35 3.183-3.05z"/><path fill="#202e3a" d="m369.69 303.748 2.345.022h2.406q2.517.006 5.036.024c2.579.018 5.157.02 7.736.02l4.885.018 2.351.003c5.435.049 5.435.049 6.551 1.165q.061 3.5 0 7l3.125.062c4.46 1.08 6.037 2.28 8.773 5.836 1.933 3.687 1.859 7.075 1.102 11.102-1.746 4.227-3.925 6.012-8 8l-2.187.375L402 338a80 80 0 0 0-2 5l2.887-.105 3.8-.083 3.762-.105c4.704.388 7.097 1.775 10.324 5.145 2.37 4.15 2.135 8.555 1.227 13.148-1.826 2.986-3.732 4.745-7 6-3.01.185-5.988.134-9 0l.095 2.551c.103 3.151.178 6.302.235 9.455q.044 2.038.123 4.076c.477 12.737.477 12.737-3.234 17.129A61 61 0 0 1 400 403l-2.055 2.004C385.103 416 385.103 416 382 416v-49h-48v-1h49l1-3c9.66-1.267 19.277-1.09 29-1v-2l2-1 .188-3.875.105-2.18L415 351c-3.714-2.476-6.653-2.346-10.96-2.41l-2.454-.06c-2.678-.064-5.357-.113-8.035-.163q-2.785-.061-5.57-.126c-4.887-.11-9.775-.209-14.663-.305-4.987-.1-9.974-.212-14.96-.323Q343.678 347.292 329 347a159 159 0 0 1 5-6h2v2h27l-1-4a186 186 0 0 1-.168-7.54l-.01-2.187q-.007-2.282-.007-4.564c-.002-2.333-.02-4.665-.04-6.998q-.005-2.219-.005-4.438l-.022-2.118c.03-6.484 1.58-7.38 7.942-7.407"/><path fill="#784632" d="M280.092 366.886h3.215l3.482.016 3.556.005c3.76.005 7.52.018 11.28.03q3.816.008 7.633.014 9.371.017 18.742.049-.664 2.145-1.348 4.285l-.758 2.41c-1.655 4.267-4.237 7.32-8.207 9.68L316 384l-2-8h-2l-.55 3.848c-3.953 27.216-3.953 27.216-7.45 37.152h6v1h-55v-16h1v15h5l-.035-3.086c-.038-4.639-.012-9.276.035-13.914l.018-2.427c.23-18.778.23-18.778 7.576-26.178 3.961-3.467 6.342-4.52 11.498-4.509"/><path fill="#774530" d="M170 367c7.277-.102 14.554-.172 21.832-.22q3.712-.03 7.423-.082c3.562-.048 7.124-.071 10.686-.089l3.338-.062c6.492-.002 10.436.594 15.721 4.453 6.86 6.907 7.092 17.692 7.195 26.86a764 764 0 0 1-.07 6.89l-.027 3.594q-.036 4.327-.098 8.656h6v1h-55v-1h6l-.805-3.016C189.005 401.542 187 388.874 187 376h-4l-1 8c-3.245-1.384-5.013-2.873-7.125-5.687l-1.508-1.95c-1.73-2.992-2.46-6.04-3.367-9.363"/><path fill="#9d613c" d="M180.559 251.203c2.811.918 5.035 2.079 7.441 3.797v2l-1.793.078c-5.257.377-8.384.98-12.207 4.922-4.242 8.484-.676 24.85 0 34.313.368 5.227.71 10.454 1 15.687l.19 3.309c.033.977.065 1.954.1 2.96l.1 2.547c-.52 2.913-1.694 3.801-4.015 5.559-7.83 4.28-16.54 7.378-25.375 8.625l-2-4 3-2c.724-2.06.724-2.06 1-4h-6l-1 3c-1.848 1.168-1.848 1.168-4.062 2.188L133 332l1-11-3 1c-1.03 2.56-1.03 2.56-1.687 5.563l-.762 3.066L128 333h-9c-.125-7.625-.125-7.625 1-11h-3l-3 10c-4-3-4-3-4.602-5.234-.042-4.535.138-7.909 2.977-11.579 5.756-5.755 13.784-8.401 21.3-11.097 5.642-2.645 8.747-6.764 12.012-11.902l1.297-1.986c1.781-2.727 3.543-5.466 5.304-8.206 5.35-8.299 10.814-15.874 17.712-22.996l2.164-2.422 2.086-2.265 1.828-2.012C178 251 178 251 180.558 251.203"/><path fill="#9d603b" d="M341 174c-.514 16.897-4.724 32.903-16 46h-2l-.719 1.758c-7.825 13.693-29.29 20.23-43.531 24.554-12.752 3.419-25.648 2.807-38.75 2.688l-1-4 1.92.003c17.688.476 17.688.476 33.08-7.003 4.79-5.788 5.622-11.804 5.309-19.148-.41-3.786-1.19-7.215-2.309-10.852l1.61.484c7.646 1.65 16.542 1.587 23.39-2.484 6.737-4.466 9.7-9.35 12-17l.383-3.535c1.912-4.096 2.708-4.306 6.773-5.899q3.158-1.043 6.344-2.004l3.246-1.06C338.511 174 338.511 174 341 174"/><path fill="#9b603d" d="M323.031 252.5c13.316 10.145 22.732 29.381 25.969 45.5.616 8.678-.609 14.961-6 22-6.395 6.395-13.401 9.172-22.413 9.27-3.2-.029-6.39-.127-9.587-.27-.334-10.49.694-20.609 2-31 7.295-3.402 7.295-3.402 11.938-3.187l2.34.082L329 295v-5l-15 1 .105-5.766q.043-3.742.082-7.484l.077-3.8.029-3.653.048-3.364c-.38-3.267-1.243-4.482-3.341-6.933v-2c2.047-1.578 2.047-1.578 4.75-3.25l2.672-1.703C321 252 321 252 323.032 252.5"/><path fill="#2a2526" d="M84 361h329v1l-2.646.152q-4.845.285-9.69.593-2.098.13-4.198.25c-2.009.115-4.017.243-6.025.372l-3.665.222L384 364l-1 2h-49l-1 7c-1.062 2.938-1.062 2.938-2 5l2.25.688c3.48 1.66 4.822 2.956 6.75 6.312.871 4.769.453 8.11-1.75 12.438-2.087 2.376-3.28 3.604-6.25 4.562h-3l1 16h-6c-.853-3.674-1.108-7.045-1.062-10.812l.027-2.958L323 402h-10l-.375 4.688c-.368 3.762-.915 6.892-2.625 10.312h-6l.77-3.89A721 721 0 0 0 311 376h4l2 7c3.05-.641 3.05-.641 3.938-2.687.35-.764.7-1.527 1.062-2.313l2-2.937c1.755-2.688 2.872-5.086 4-8.063q-11.24.177-22.48.372-3.825.065-7.65.125-5.49.088-10.983.187l-3.466.05-3.215.06-2.833.048c-2.523.068-2.523.068-5.373 1.158l-3-1v2h-2v2l-1.937.375L263 373l-1 2h-2l.188 2.188c-.223 3.34-1.316 5.082-3.188 7.812-1.232-3.475-.808-5.204.75-8.5.345-.753.69-1.506 1.047-2.281C260 372 260 372 263 368h-30v-2h32l-1-2c-28.358-.634-56.714-1.096-85.078-1.316l-2.114-.017q-12.782-.097-25.562-.184-11.044-.077-22.088-.16Q106.58 362.155 84 362z"/><path fill="#252a32" d="m162 157-.21 2.367a307 307 0 0 0-1.04 24.196l-.062 3.42c-.081 17.547 6.204 33.25 18.312 46.017 2.962 2.39 2.962 2.39 6.188 4.5l1.703 1.16c4.318 2.911 8.775 5.516 13.379 7.953L202 248v4c-4.34-.362-7.317-1.037-11.125-3.187-3.008-1.605-3.008-1.605-6.375-1.5-3.82 2.578-7.14 5.54-10.5 8.687l-2.316 2.05c-7.531 7-12.803 15.185-18.31 23.803A558 558 0 0 1 144 296l-1.246 1.887c-4.501 6.183-12.112 8.514-19.004 11.113-5.625 2.184-9.353 4.905-12.75 10-.316 2.445-.316 2.445-.25 5.063l-.016 2.66c.05 2.475.05 2.475 2.266 4.277l.516-1.934.734-2.503.703-2.497C116 322 116 322 118.11 321.215L120 321c0 4.127-.455 7.915-1 12h9l.313-4.25c.398-3.726.954-6.017 3.687-8.75l3 1-1 10 3.438-1.875 1.933-1.055c1.795-.984 1.795-.984 2.629-3.07h6l-1 5c-3 0-3 0-5-1l-1.39 1.094-1.86 1.406-1.828 1.406C135 334 135 334 131 334l-1 2 2 2c-6.848 3.424-17.96 1.03-25-1l-3 1a436 436 0 0 1-.312-9.5l-.127-2.687c-.12-6.552 1.21-10.765 5.439-15.813 5.052-4.952 10.94-7.426 17.544-9.733 8.622-3.123 12.34-8.07 16.706-15.704 8.926-15.061 18.627-29.959 33.133-40.223L178 243v-2a61 61 0 0 0-3.437-2.875C162.274 227.533 155.334 212.95 153 197c-.218-4.026-.191-8.032-.125-12.062l.027-3.202q.036-3.868.098-7.736c-3.814 2.581-4.807 4.526-6 9l-4-1c-.576-3.289-.42-5.339 1.383-8.18C147.77 169.7 147.77 169.7 150 168c2.738-.227 2.738-.227 5 0l2-8h2v-2c2-1 2-1 3-1"/><path fill="#242d37" d="m184.149 256.746 3.228-.017 3.542.012 3.731-.01q5.067-.01 10.135 0c3.535.005 7.071 0 10.607-.002q8.91-.006 17.82.01 10.296.015 20.59-.003 8.842-.014 17.682-.006 5.28.007 10.56-.003c3.925-.006 7.852.003 11.778.014l3.53-.012 3.246.017 2.812.002c4.154.404 6.843 1.552 9.883 4.4 2.136 3.568 2.196 6.45 2.02 10.477l-.047 2.123A191 191 0 0 1 314 291l3-1c2.061-.069 4.125-.085 6.188-.062l3.292.027L329 290v5l-2.703.367-3.547.508-3.516.492c-3.921.673-3.921.673-7.234 2.633-.635 2.806-.635 2.806-.625 6.063-.28 5.594-.705 10.577-2.375 15.937-2.074 1.238-2.074 1.238-4 2q.212-5.532.438-11.062l.119-3.147c.169-4.096.345-8.114.931-12.174.819-5.786 1.01-11.595 1.262-17.43l.207-3.755.152-3.577.156-3.26L308 266c-3.284-2.19-4.24-2.252-8.048-2.26l-3.161-.022-3.467.007-3.651-.015q-4.959-.017-9.918-.012-4.137 0-8.275-.008a7409 7409 0 0 0-19.52-.006c-6.716.006-13.432-.006-20.148-.027q-8.646-.026-17.292-.02c-3.443.001-6.887-.001-10.33-.015-3.838-.015-7.676-.006-11.514.006l-3.467-.023-3.16.02h-2.752c-2.752.45-3.652 1.159-5.297 3.375-.263 2.225-.263 2.225.074 4.707l.272 2.924.342 3.182q.316 3.382.628 6.765l.345 3.631c.591 6.61 1.026 13.231 1.464 19.854l.264 3.833C182.55 329.25 182.55 329.25 181 337l-2 2v2h-2c-1.203-2.405-1.1-3.95-1.062-6.625l.027-2.477L176 330l-5 2-1 11h7l-3 2c-3.187-.875-3.187-.875-6-2-.18-5.22.03-9.073 2-14-.748.36-1.495.722-2.266 1.094l-2.984 1.406-2.953 1.406C159 334 159 334 155 334v2c-2.405 1.203-3.95 1.1-6.625 1.063l-2.477-.028L144 337l1-4 1.648.602c8.607 1.458 20.364-5.943 27.352-10.602.407-2.131.407-2.131.25-4.645l-.082-2.998c-.352-7.034-.812-14.058-1.314-21.082A627 627 0 0 1 172 280l-.107-2.193a326 326 0 0 1-.205-6.514l-.114-3.878c.503-4.034 1.583-5.57 4.426-8.415 3.309-2.206 4.302-2.25 8.149-2.254"/><path fill="#c7a182" d="m89.271 348.871 3.486-.01 3.878.005 4.082-.007q5.635-.008 11.269-.004 6.067-.002 12.133-.01 11.895-.012 23.79-.012 9.665 0 19.328-.006 27.367-.014 54.736-.012h5.971q23.976-.002 47.952-.023 24.588-.023 49.176-.02 13.816.001 27.632-.014 11.762-.014 23.525-.005 6.006.007 12.012-.005 5.492-.011 10.983.002c1.962.003 3.923-.005 5.885-.013l3.494.014h3.034C414 349 414 349 416 351v3H83c0-5.845.97-5.125 6.271-5.129"/><path fill="#e0e7e5" d="m295 161 3 2c-3.212 7.256-9.282 13.488-15 18.875-2.649 2.538-3.884 4.307-4 8.125h2l.813-1.812c1.18-2.175 2.455-3.456 4.187-5.188l1-3c1.637-1.578 1.637-1.578 3.688-3.25 3.898-3.294 7.087-6.8 10.312-10.75 4.042 1.745 5.806 3.775 8.016 7.52 2.274 5.73 2 12.61-.204 18.355-3.728 6.43-7.608 10.952-14.812 13.125-6.157.88-11.702.552-17.148-2.598-4.698-3.558-9.59-8.512-10.852-14.402-.741-8.018.535-13.507 5.25-20.187 7.184-7.348 13.66-7.903 23.75-6.813"/><path fill="#e9f0f3" d="m210.938 160.813 3.09-.043c3.044.236 5.22.947 7.972 2.23-1.361 3.045-2.903 5.143-5.258 7.496l-1.894 1.943a636 636 0 0 1-3.97 3.985l-1.886 1.947-1.739 1.748c-1.606 2.411-1.487 4.042-1.253 6.881q3.379-3.59 6.75-7.187l1.922-2.042c3.264-3.484 6.414-6.981 9.328-10.771 1.75.063 1.75.063 4 1 4.026 6.097 6.109 11.557 5 19-2.335 6.784-5.869 12.155-12 16-5.816 2.76-12.073 3.123-18.281 1.348-6.224-2.79-11.22-7.972-13.719-14.348-.856-7.316-1.151-14.255 3.438-20.316 5.9-6.359 9.707-8.816 18.5-8.871"/><path fill="#de9f6c" d="m230 207 3 1 1 6 2.438.375L239 215l1 2c2.025.652 2.025.652 4 1 1.326 6.27 1.326 6.27-.062 9.375-2.551 2.14-4.67 2.335-7.938 2.625v4a782 782 0 0 0 4.125-.875l2.512-.531c2.52-.554 2.52-.554 5.3-1.969 4.295-.876 6.986.643 10.891 2.43 2.083 1.078 2.083 1.078 4.172.945l1-4-2.875-.437C258 229 258 229 256 228c-.594-2.649-.742-5.292-1-8l2.75-1.812L261 216l2.188-1.375c2.44-2.187 3.494-4.659 4.812-7.625 3.354.95 6.692 1.897 10 3 3.193 6.219 3.122 14.227 1.16 20.824-3.187 7.179-7.504 10.073-14.452 13.211-4.693 1.672-9.459 1.375-14.396 1.403l-3.146.1c-8.618.059-15.026-2.026-21.639-7.636l-1.59-1.964-1.66-1.973c-2.494-3.837-2.437-7.528-2.464-12.028l-.043-3.16c.29-3.492 1.48-5.108 4.07-7.418l2.097-1.609 2.09-1.64z"/><path fill="#d0a37e" d="M259.406 184.555c3.028 2.745 4.052 6.653 5.356 10.437 1.924 4.674 4.48 7.98 8.988 10.32L277 207v5l-1.687-1.437c-2.496-1.687-4.358-2.153-7.313-2.563l-1.125 2.688c-2.63 4.647-5.695 7.585-10.875 9.312v8l8 2-1 5-2.047-.621-2.703-.816-2.672-.81L253 232l-2.117-.687c-3.218-.535-5.953 1.424-8.883 2.687-3.437.188-3.437.188-6 0v-4l3.438-1.062c1.953-.741 1.953-.741 3.562-1.938.835-3.174 1-5.75 1-9l-5-1v-2h-5l-.875-2.937c-.767-3.17-.767-3.17-3.125-4.063l-2.875 2.375-1.617 1.336c-1.219 1.042-2.375 2.156-3.508 3.289.05-2.984.101-5.199 1-8 1.602-1.507 3.282-2.52 5.156-3.664 4.325-3.134 6.439-8.178 8.156-13.086 2.002-3.855 3.598-4.932 7.508-6.594 5.143-1.548 10.648-1.413 15.586.899"/><path fill="#bb8058" d="M190 90c6.675 3.97 9.688 10.182 13 17l2.082-.848C239.06 92.734 266.012 94.567 300 107l.367-1.758c2.128-7.538 7.76-13.5 14.473-17.277 7.202-3.167 15.001-3.02 22.348-.403C343.714 90.494 350.113 95.265 353 102l-1 2-1.812-2.687c-4.604-5.414-10.808-7.922-17.77-8.727-9.407-.22-15.701 1.187-22.781 7.535-3.052 3.504-4.779 7.66-6.637 11.879a350 350 0 0 1-2 4l-5-1v-2l-1.8-.516c-4.576-1.337-9.019-2.788-13.45-4.546C257.038 99.33 230.64 103.56 208 113l-2.207 1.184C204 115 204 115 200 115l-.629-1.906c-2.781-7.727-6.411-13.639-13.496-18.031-7.516-2.778-16.469-3.788-24.027-.829-4.207 2.282-8.057 4.85-11.848 7.766 1.367-5.64 5.44-8.788 10-12 10.443-5.733 19.406-5.128 30 0"/><path fill="#2a2a2f" d="M418 349c2.063.438 2.063.438 4 1 1.04 9.271 1.04 9.271-1.242 13.066-3.455 3.304-5.743 4.068-10.512 4.079A231 231 0 0 1 406 367l.095 2.551c.103 3.151.178 6.302.235 9.455q.044 2.038.123 4.076c.477 12.737.477 12.737-3.234 17.129A61 61 0 0 1 400 403l-2.055 2.004C385.103 416 385.103 416 382 416v-49h-48v-1h49l1-3c9.66-1.267 19.277-1.09 29-1v-2l2-1c.65-2.086.65-2.086 1.063-4.5.843-4.406.843-4.406 1.937-5.5"/><path fill="#263038" d="m97 363 2.25.563c2.608.601 2.608.601 4.559-.027 2.717-.665 5.2-.67 7.998-.681l3.54-.02 3.81-.003 3.922-.01q4.106-.009 8.21-.007c3.504 0 7.008-.014 10.512-.031 3.347-.014 6.695-.013 10.043-.014l3.81-.022 3.54.01 3.112-.005c2.726.25 4.368.848 6.694 2.247l-5 4v-2h-49v50c-3.727-1.863-6.374-3.796-9.562-6.437l-2.88-2.372L100 406l-1.639-1.386c-1.704-2.02-1.726-3.011-1.702-5.626l.001-2.427.047-2.604.013-2.678c.017-2.822.054-5.644.093-8.466q.022-2.87.04-5.74.053-7.037.147-14.073"/><path fill="#272c32" d="M170 371c2.926 2.778 5.16 5.888 7.5 9.16 1.55 2.086 1.55 2.086 4.5 3.84l-.062-2.875C182 378 182 378 183 376h4c.761 2.784 1.197 5.434 1.43 8.309l.217 2.496.228 2.632c.661 7.212 1.677 14.025 3.54 21.032C193 413 193 413 193 417h-6a499 499 0 0 1-1.5-4.687l-.844-2.637c-.655-2.67-.774-4.94-.656-7.676h-9c-.09 1.373-.09 1.373-.184 2.773l-.254 3.602c-.08 1.183-.162 2.367-.246 3.586C174 415 174 415 173 417h-5v-15l-5-1c-3.305-2.791-4.708-4.406-5.488-8.668-.228-4.822-.133-7.47 2.738-11.457 2.398-1.635 3.9-2.558 6.75-2.875l-1-5 3 1z"/><path fill="#505d69" d="M368 310h27c.069 4.218.129 8.434.165 12.653q.022 2.151.061 4.303c.037 2.063.054 4.125.067 6.189l.048 3.76C395 340 395 340 393.78 341.905c-2.31 1.422-3.855 1.484-6.562 1.494l-2.801.012-2.918-.035-2.918.035-2.8-.012-2.561-.01C371 343 371 343 369.219 341.904c-1.856-2.899-1.555-5.349-1.512-8.76l.013-2.004c.017-2.11.054-4.218.092-6.327q.024-2.148.042-4.295c.03-3.507.089-7.011.146-10.518"/><path fill="#99735b" d="m81 351 5 4-2 4 326-1v-4h6c.188 2.375.188 2.375 0 5-3.388 2.259-4.53 2.251-8.499 2.254-1.725.01-1.725.01-3.485.018l-3.847-.011-4.072.011c-3.739.01-7.477.008-11.216.004-4.029-.002-8.057.007-12.086.014q-11.842.018-23.686.012-9.623-.002-19.245.005l-2.763.001-5.556.004q-26.072.014-52.145.003c-15.915-.006-31.83.006-47.745.025q-24.491.03-48.983.024c-9.172-.002-18.345 0-27.517.014q-11.711.019-23.423.002a2672 2672 0 0 0-11.958.005q-5.468.014-10.936-.007c-1.952-.004-3.903.007-5.854.019l-3.485-.022h-3.02C84 361 84 361 82.168 359.707c-1.884-2.754-1.35-5.48-1.168-8.707"/><path fill="#dfa06d" d="M182.75 102.625c3.412 2.214 5.446 4.693 7.25 8.375.125 2.563.125 2.563-1 5-1.413 1.216-2.834 2.424-4.316 3.555-4.838 4.152-8.232 10.134-11.684 15.445-4.954-1.166-8.302-2.302-12-6-2.685-5.522-2.889-10.981-2-17 2.062-4.465 4.874-7.216 8.875-10 5.39-1.725 9.838-1.953 14.875.625"/><path fill="#e09f6c" d="M333.336 102.102c5.197 3.145 8.142 5.811 9.664 11.898.887 6.228.366 11.143-3.29 16.371-3.032 2.888-6.688 3.788-10.71 4.629l-1.574-2.23c-4.217-5.9-8.172-11.116-13.801-15.708C312 115 312 115 312 112.063c1.636-5.008 3.686-7.343 8.313-9.874 4.857-1.565 8.26-2.332 13.023-.086"/><path fill="#a28e7e" d="M304 168c3.585 3.346 5.761 5.802 6.3 10.77.032 8.127-.85 12.66-5.488 19.417-4.903 4.904-9.336 7.023-16.312 7.313-5.397-.18-8.912-1.73-13.5-4.5 6.132-7.205 12.308-14.308 19-21 5.584-5.578 5.584-5.578 10-12"/><path fill="#252d36" d="M260.25 199.438C263 201 263 201 264 202c.477 3.404.64 5.93-1.164 8.95-2.864 3.502-5.342 5.86-9.836 7.05v7c5.202 3.237 5.202 3.237 11 5l-1 5-2.047-.621-2.703-.816-2.672-.81L253 232l-2.117-.687c-3.218-.535-5.953 1.424-8.883 2.687-3.437.188-3.437.188-6 0v-4a875 875 0 0 1 4.375-2l2.46-1.125C245 226 245 226 247 226v-8l-2.187-.75c-4.36-1.938-7.171-4.287-9.813-8.25-.542-5.202-.542-5.202 1.188-7.75 6.701-4.622 16.63-4.958 24.062-1.812"/><path fill="#a28e80" d="M227 168c4.491 5.09 6.587 9.887 6.375 16.79-1.194 7.037-5.078 12.63-10.531 17.054-5.706 3.578-11.265 3.944-17.844 3.156-2.958-1.067-5.289-2.363-8-4l2.148-1.613c3.7-3.096 6.755-6.604 9.922-10.229 3.617-4.054 3.617-4.054 6.93-5.158l1.25-2.625c1.935-3.731 4.163-5.95 7.227-8.762 1.768-1.645 1.768-1.645 2.523-4.613"/><path fill="#b28564" d="M190 90c6.675 3.97 9.688 10.182 13 17l2.082-.848c30.603-12.085 57.9-13.69 88.797-1.082 2.078.911 4.102 1.895 6.121 2.93v2l-7-1v-2h-2l-1 2-2-3c-2.41-.731-2.41-.731-5.187-1.062-4.413-.648-8.533-1.681-12.813-2.938-15.354-4.15-32.712-3.746-48 1a83 83 0 0 0-4 3 84 84 0 0 1-5.437 2.125l-2.81 1.008c-7.048 2.22-7.048 2.22-9.753.867l-1 2-.918-2.012C194.46 102.355 191.044 97.352 183 94c-9.823-2.348-17.975-1.895-26.66 3.395A144 144 0 0 0 150 102c1.367-5.64 5.44-8.788 10-12 10.443-5.733 19.406-5.128 30 0"/><path fill="#322623" d="m184.149 256.746 3.228-.017 3.542.012 3.731-.01q5.067-.01 10.135 0c3.535.005 7.071 0 10.607-.002q8.91-.006 17.82.01 10.296.015 20.59-.003 8.842-.014 17.682-.006 5.28.007 10.56-.003c3.925-.006 7.852.003 11.778.014l3.53-.012 3.246.017 2.812.002c4.15.404 6.841 1.553 9.883 4.393 2.15 3.601 2.196 6.545 2.02 10.609l-.052 2.143c-.415 14.26-.415 14.26-3.261 17.107l.016-1.785q.029-4.076.047-8.152l.025-2.807c.02-5.839-.334-11.465-1.088-17.256-6.98-.911-13.8-1.148-20.834-1.145l-3.488-.01q-5.67-.013-11.342-.013l-7.915-.01q-8.28-.009-16.558-.007-9.55-.001-19.101-.026c-6.146-.015-12.292-.018-18.439-.018q-3.91 0-7.82-.013c-3.642-.01-7.285-.007-10.927 0-1.074-.007-2.147-.012-3.253-.018-8.727-.28-8.727-.28-16.323 3.26-.017 2.1.038 4.2.121 6.297l.15 4.055.084 2.173c.14 3.753.24 7.507.348 11.26.152 5.206.347 10.406.619 15.607.16 3.264.256 6.53.366 9.796l.241 3.645c.081 3.34.058 5.972-.929 9.167-2.993 2.88-6.187 4.432-10 6l-2.067 1.012C160.677 333.566 158.677 334 155 334v2c-2.405 1.203-3.95 1.1-6.625 1.063l-2.477-.028L144 337l1-4 1.648.602c8.607 1.458 20.364-5.943 27.352-10.602.407-2.131.407-2.131.25-4.645l-.082-2.998c-.352-7.034-.812-14.058-1.314-21.082A627 627 0 0 1 172 280l-.107-2.193a326 326 0 0 1-.205-6.514l-.114-3.878c.503-4.034 1.583-5.57 4.426-8.415 3.309-2.206 4.302-2.25 8.149-2.254"/><path fill="#8896a3" d="m186.041 262.619 3.157-.026 3.462.019 3.647-.016a1598 1598 0 0 1 9.905.001c3.454.008 6.91 0 10.364-.004q8.704-.007 17.41.016c6.707.016 13.415.01 20.123-.006q8.639-.02 17.277-.007 5.16.008 10.318-.005c3.836-.01 7.671.004 11.507.02l3.455-.018 3.166.026 2.748.003c2.92.456 4.31 1.33 6.42 3.378.25 2.688.25 2.688 0 5l-1.68-1.476c-2.748-1.805-4.184-1.9-7.444-1.905l-3.135-.026-3.423.019-3.617-.016c-3.271-.011-6.541-.008-9.812.001-3.424.008-6.848 0-10.272-.004q-8.625-.007-17.25.016c-6.646.016-13.292.01-19.938-.006q-8.562-.02-17.124-.007-5.113.008-10.225-.005c-3.8-.007-7.599.004-11.398.02l-3.423-.018-3.135.026-2.722.003c-2.857.45-4.253 1.49-6.402 3.378-.365-4.499-.365-4.499 1.197-6.644 2.394-1.8 3.863-1.733 6.844-1.737"/><path fill="#6c4a3c" d="M318 238c-10.216 6.635-10.216 6.635-14.625 8.688-2.55 1.082-2.55 1.082-3.25 3.5L300 252c4.34-.362 7.317-1.037 11.125-3.187 3.519-1.883 3.519-1.883 6.75-1.25C320 249 320 249 322 252a992 992 0 0 1-4.312 2.938l-2.426 1.652c-4.24 2.643-4.24 2.643-7.14 1.982L306 258a96 96 0 0 0-4.96-.158l-3.026-.03-3.3-.017-3.49-.03q-5.714-.046-11.427-.081l-7.92-.063q-9.36-.074-18.72-.138-10.657-.076-21.316-.16-21.92-.17-43.841-.323v-2l-2.25-.812c-2.616-1.13-4.552-2.397-6.75-4.188 2.688-2.125 2.688-2.125 6-4 2.438.563 2.438.563 5 2 4.004 1.787 7.652 3.341 12 4v-5l2 1v7l3.867-.254 5.008-.309 2.55-.17 2.442-.146 2.254-.143C222 254 222 254 224 255c2.306.098 4.614.13 6.922.133l2.11.003q2.225 0 4.449-.006c2.219-.005 4.437 0 6.656.007 9.002.004 17.89-.354 26.863-1.137v1h25v-2l-2-2h2l.313-1.937L297 247l3-1 1-2c3.032-1.882 4.245-2 8-2l1-3c3.315-1.745 4.366-2.211 8-1"/><path fill="#7d482f" d="M344 285c4.447 4.447 5.192 12.23 5.313 18.313-.291 7.995-3.292 13.666-8.938 19.312-9.12 6.975-18.423 6.864-29.375 6.375v-13h1v5c7.236-1.592 13.473-3.495 20-7h2v-2l2.25-2.062c6.984-6.845 7.462-15.618 7.75-24.938"/><path fill="#222f3b" d="M397 306h3v7l2.563-.875c4.509-.164 5.83 1.368 9.019 4.332 2.933 3.191 2.693 6.139 2.633 10.29-.298 3.127-1.182 4.87-3.215 7.253-2.437 1.75-4.206 2.887-7.187 3.313L402 338c-1.305 2.996-1.305 2.996-2 6h8v3h-17c2-6 2-6 4-8 .246-3.176.246-3.176.125-6.906l-.023-2.062A897 897 0 0 0 395 323.5q-.078-4.297-.125-8.594l-.07-3.865C395 308 395 308 397 306"/><path fill="#2a2a2c" d="M225.883 159.457c7.03 5.124 10.818 12.24 12.867 20.606L239 182h-2l-2 10h-2c-.774-3.096-.98-5.592-.875-8.812.087-5.765-1.968-10.452-5.125-15.188-3.523.564-4.896 1.63-7.125 4.375a356 356 0 0 1-9.25 10.625l-2.586 2.875L206 188h-1c-.5-2.5-.5-2.5 0-6 1.762-2.179 3.705-4.007 5.762-5.91 2.182-2.038 4.152-4.153 6.113-6.403l1.68-1.925c1.615-1.91 1.615-1.91 3.445-4.762-8.08-1.835-16.78-2.476-24 2-4.039 3.79-6.769 7.918-9 13l-4-3c.338-5.406 3.414-9.182 7-13 9.754-7.62 23.019-8.901 33.883-2.543"/><path fill="#b27a56" d="M97 367h12v46c-10.473-7.855-10.473-7.855-12-10a54 54 0 0 1-.39-8.266c.005-.793.01-1.586.017-2.404.022-2.527.072-5.053.123-7.58q.03-2.574.055-5.148c.044-4.202.113-8.402.195-12.602"/><path fill="#1f2b36" d="M331 369c1.125 1.688 1.125 1.688 2 4-.875 2.75-.875 2.75-2 5l2.25.688c3.48 1.66 4.822 2.956 6.75 6.312.871 4.769.453 8.11-1.75 12.438-2.087 2.376-3.28 3.604-6.25 4.562h-3l1 16h-6c-.853-3.674-1.108-7.045-1.062-10.812l.027-2.958L323 402h-9v-1h6v-2l2.371-.148 3.067-.227c1.009-.07 2.018-.14 3.058-.21.826-.138 1.653-.274 2.504-.415l1-2h-17c1-5 1-5 3.813-7.187 2.372-1.35 4.71-2.67 7.187-3.813v-2h3v-2h-2c-1-3-1-3-.258-4.754l1.133-1.808 1.117-1.817L330 371z"/><path fill="#af7a55" d="M388 367h12c.393 4.817.716 9.633.977 14.46q.147 2.456.35 4.907c1.108 13.547 1.108 13.547-2.46 18.735-3.426 3.142-6.444 5.424-10.867 6.898z"/><path fill="#7b462e" d="M174 306c.428 1.982.728 3.99 1 6l.383 2.637c.604 7.147.604 7.147-1.899 10.23-7.793 5.57-18.077 8.805-27.484 10.133l-2-4 3-2c.724-2.06.724-2.06 1-4h-6l-1 3c-1.848 1.168-1.848 1.168-4.062 2.188l-2.223 1.042L133 332l1-8c3.83-1.802 6.781-2.196 11-2v2l2.336-.875 3.039-1.125 3.023-1.125C156 320 156 320 158 320v-2a338 338 0 0 1 5-3 173 173 0 0 0 5.25-4.687C172.9 306 172.9 306 174 306"/><path fill="#212b36" d="m366 338 1 2c3.071 1.943 5.608 2.289 9.203 2.414l2.969.117 3.078.094 3.125.117q3.812.141 7.625.258l-2 4 17-1v-1l-8-1v-1c2.229-.081 4.458-.14 6.688-.187l3.761-.106c3.775.311 5.572 1.015 8.551 3.293 1.313 2.188 1.313 2.188 2 4h-3l-2 2-1.495-1.467c-3.447-2.11-6.652-2.016-10.578-2.057l-2.455-.06c-2.673-.063-5.346-.105-8.019-.146q-2.782-.06-5.565-.122c-4.88-.107-9.759-.196-14.638-.281-4.98-.09-9.961-.197-14.941-.303Q343.654 347.26 329 347a159 159 0 0 1 5-6h2v2c4.438-.052 8.875-.147 13.313-.25l3.826-.043 3.662-.098 3.38-.063c2.948-.283 2.948-.283 4.706-2.584z"/><path fill="#8b634b" d="m292 153 3.813.313c3.332.718 5.51 1.578 8.187 3.687v3l-2.312-.937c-7.945-3.141-16.996-3.402-25.125-.563-6.644 3.103-10.9 8.209-13.5 15L262 177l-2.25-.5c-7.582-1.011-15.225-.868-22.75.5-.22-.568-.438-1.137-.664-1.723-2.948-7.178-6.303-12.982-13.336-16.714-7.261-2.851-16.193-2.84-23.562-.313-7.946 4.045-12.613 10.274-15.438 18.75-5.76-.606-10.72-2.757-16-5 3.81-1.142 5.344-.567 9 1 1.992.376 3.992.72 6 1l.297-2.187c1.336-5.347 4.733-9.11 8.703-12.813 8.333-5 17.441-6.39 27-5 9.897 3.014 9.897 3.014 12.172 7.11L232 163l2 1 1 3 2 2c2 2 2 2 3 5l1.645-.691 2.167-.871 2.145-.88C248 171 248 171 251 172c1.728.068 3.458.085 5.188.063l2.73-.028L261 172l.313-2.187c.782-3.201 1.65-5.214 3.687-7.813a126 126 0 0 1 6-2l1-3c6.36-3.841 12.738-4.611 20-4"/><path fill="#784733" d="M234 367h30l-6 11-2 7h-15l-2.832-9.863c-1.104-2.965-1.877-4.109-4.168-6.137z"/><path fill="#3f474f" d="m384 363 4 1c.101 6.923.171 13.846.22 20.77q.03 3.534.082 7.069c.048 3.383.07 6.766.089 10.15l.062 3.2.001 2.972.027 2.618C388 413 388 413 386.097 414.802 384 416 384 416 382 416v-49h-48v-1h49z"/><path fill="#ad866d" d="m178 251 3 1-2.875 2.688c-11.713 11.806-21.231 26.688-29.305 41.164-5.286 9.143-12.448 12.747-21.918 16.507-2.735 1.092-5.236 2.35-7.773 3.844C116 318 116 318 114 318l-1 3h-2c.108-3.68 1.063-5.073 3.5-7.875 4.529-3.676 9.959-5.566 15.37-7.59 7.462-2.836 11.52-6.586 15.817-13.348l1.297-1.985c1.781-2.727 3.543-5.466 5.304-8.206 7.46-11.573 15.838-21.365 25.712-30.996"/><path fill="#6a493c" d="M280.092 366.886h3.215l3.482.016 3.556.005c3.76.005 7.52.018 11.28.03q3.816.008 7.633.014 9.371.017 18.742.049-.664 2.145-1.348 4.285l-.758 2.41c-1.655 4.267-4.237 7.32-8.207 9.68L316 384l-1-8 4 2c.913-3.082 1.043-5.797 1-9l-2.402.219c-6.359.506-12.637.815-19.02.742l-3.379-.037a561 561 0 0 1-6.716-.137l-3.151-.045-2.821-.067c-2.99.387-4.26 1.377-6.511 3.325a69 69 0 0 1-6.125 2.875c-2.404 1.442-2.927 2.499-3.875 5.125-.878 4.362-1.117 8.485-1.098 12.93l.01 3.906.025 4.039q.008 2.055.014 4.11.018 5.007.049 10.015h-3q-.186-7.015-.275-14.032a407 407 0 0 0-.102-4.763C261.16 379.89 261.16 379.89 267 373c4.143-4.18 7.204-6.127 13.092-6.114"/><path fill="#bc855c" d="M342 90c4.512 3.238 8.769 6.793 11 12l-1 2-1.812-2.687c-4.604-5.414-10.808-7.922-17.77-8.727-9.668-.227-15.617 1.294-22.84 7.785-2.276 2.35-3.907 4.822-5.578 7.629l-2-1c-.51-5.349.633-7.856 4-12 9.971-10.375 23.38-12.146 36-5"/><path fill="#262d37" d="m342 324 2 1v3l-3.437 1.438c-1.999 1.006-1.999 1.006-3.563 2.562-.599 2.408-.69 4.5-.637 6.977L336 341c-4.246 2.854-9.053 2-14 2l2-9h-6l.188 2.813C318 340 318 340 316.875 341.875c-2.655 1.593-4.843 1.327-7.875 1.125l1-9h5l-3-1c-1.187-2.062-1.187-2.062-2-4l3 1c10.63 1.94 17.048.928 26.27-4.531z"/><path fill="#a29288" d="M304 168h1c.369 4.303-.494 6.509-3 10-2.125 2.313-2.125 2.313-4 4h-1l-.008 1.941c-.273 6.11-1.266 9.326-5.715 13.586-1.605 1.526-1.605 1.526-1.277 4.473v2c-10.558.554-10.558.554-15-3 6.132-7.205 12.308-14.308 19-21 5.584-5.578 5.584-5.578 10-12"/><path fill="#212c36" d="M162 157q-.215 3.063-.437 6.125l-.247 3.445c-.824 8.938-.824 8.938-2.316 10.43a200 200 0 0 0-.562 7.563l-.131 2.154q-.159 2.64-.307 5.283h-2l-2 5h-1v-23c-4.214 3.16-4.713 4.173-6 9l-4-1c-.576-3.289-.42-5.339 1.383-8.18C147.77 169.7 147.77 169.7 150 168c2.738-.227 2.738-.227 5 0l2-8h2v-2c2-1 2-1 3-1"/><path fill="#332927" d="M355 104c4.03 4.361 3.472 8.55 3.371 14.227-.551 5.607-2.242 10.583-4.371 15.773h-2v2h-2l-.562 1.75c-2.6 4.07-6.844 5.843-11.375 7L336 145l1 9h2c3.72 9.963 3.72 9.963 3 15-1.5 1.688-1.5 1.688-3 3v3c-2.767 1.032-5.538 2.05-8.312 3.063l-2.381.892-2.295.83-2.11.778c-2.898.666-5.129-.639-7.902-1.563v-2q3.464-1.45 6.938-2.875l1.939-.816c4.948-2.02 9.88-3.29 15.123-4.309l-.658-1.864c-.98-2.792-1.942-5.589-2.904-8.386l-1.038-2.934-.966-2.832-.905-2.602c-.573-2.58-.528-3.949.471-6.382 2.11-1.09 2.11-1.09 4.75-1.937 7.695-2.835 11.43-8.042 15.25-15.063 1.18-3.541 1.146-6.754 1.125-10.437l.008-3.997c-.104-2.793-.416-4.914-1.133-7.566z"/><path fill="#9e9185" d="m211.25 160.938 3.266.027L217 161l-1.77.77c-2.47 1.362-3.993 2.837-5.91 4.898l-2.066 2.209-2.129 2.31-2.105 2.252c-7.464 7.913-7.464 7.913-14.02 16.561-.92-14.56-.92-14.56 3.438-20.316 6.047-6.517 9.802-8.844 18.812-8.746"/><path fill="#89634c" d="M355 118h1c-.215 8.43-2.934 13.45-8.375 19.75-3.983 3.414-8.331 6.403-13.625 7.25.644 4.778 1.963 9.159 3.563 13.688C340 165.598 340 165.598 340 169a3684 3684 0 0 1-9.687 3.438l-2.764.986-2.686.947-2.46.873c-2.45.771-4.876 1.298-7.403 1.756l-1.137-2.195c-2.878-5.439-5.696-10.27-9.863-14.805h4v2h2c1.438 2.117 1.438 2.117 3 4.875 2.167 3.814 2.167 3.814 5 7.125l2-2c3.125-.125 3.125-.125 6 0v-2c2.572-1.62 3.677-2.044 6.75-1.625L335 169c1.348-4.502.53-7.41-.937-11.812l-1.153-3.52L332 151h-1c-.306-3.431-.426-4.937 1-8 2.547-1.84 5.161-3.346 7.912-4.855C347.89 133.615 351.896 126.4 355 118"/><path fill="#6d5145" d="M187 376c2.733 3.13 3.453 5.361 3.844 9.473l.34 3.228.316 3.361q.315 3.27.656 6.536l.276 2.922c.8 4.906 2.26 9.684 3.568 14.48l37-1c.03-7.456.03-7.456.063-15.062l.027-4.712.008-3.761.016-3.825c-.113-3.617-.533-7.07-1.114-10.64 4.795 4.795 4.124 14.435 4.195 20.86a764 764 0 0 1-.07 6.89l-.027 3.594q-.036 4.327-.098 8.656h6v1h-55v-1h6l-.805-3.016C189.005 401.542 187 388.874 187 376"/><path fill="#88624d" d="M341 174v3l-2.937.75c-6.644 1.91-13.86 4.667-19.063 9.25-.977 2.304-1.668 4.546-2.262 6.977C316 196 316 196 313 198l-.875 2.313c-1.419 3.389-3.447 5.205-6.125 7.687l-1.562 1.688c-5.04 4.601-11.966 4.274-18.438 4.312-2.852-.42-5.255-1.085-8-2l-1-4 1.61.484c7.646 1.65 16.542 1.587 23.39-2.484 6.737-4.466 9.7-9.35 12-17l.383-3.535c1.912-4.096 2.708-4.306 6.773-5.899q3.158-1.043 6.344-2.004l3.246-1.06C338.511 174 338.511 174 341 174"/><path fill="#9e8a7c" d="m218 180 2 1c.618 8.836.618 8.836-1.625 13.063-2.82 2.3-4.782 2.692-8.375 2.937l2.438.813L215 199l1 3-2 1 2 2c-7.578.501-12.458-.05-19-4l2.148-1.613c3.7-3.096 6.755-6.604 9.922-10.229 3.617-4.054 3.617-4.054 6.93-5.158 1.209-2 1.209-2 2-4"/><path fill="#9f8d7d" d="M295 161v1l-3.062.5c-4.234 1.24-6.127 3.575-8.84 6.938-2.658 3.246-5.493 6.303-8.348 9.375l-1.575 1.706c-2.348 2.54-4.7 5.065-7.175 7.481-.44-8.09.46-13.403 5.25-20.187 7.423-7.592 13.449-7.327 23.75-6.813"/><path fill="#2c2c2f" d="M293 157v2l2.625-.25c4.135.306 6.121 1.771 9.375 4.25l-1 3h-3l-.687 1.672c-1.7 3.015-3.861 5.14-6.313 7.578l-2.687 2.703C289 180 289 180 287 180l-.187 1.625c-1.213 3.545-3.26 5.634-5.813 8.375h-2c-.279-2.949-.417-4.461 1.434-6.852l2.003-1.773c8.807-8.141 8.807-8.141 14.563-18.375-2.925-1.462-5.557-1.21-8.812-1.25l-3.708-.078c-3.749.353-5.42 1.232-8.48 3.328a78 78 0 0 1-4.312 1.688L268 168c1.734-4.414 4.591-6.74 8.754-8.918 5.413-2.33 10.42-2.404 16.246-2.082"/><path fill="#dda06c" d="M256.875 183.375c3.248 2.484 3.26 5.596 3.863 9.508L261 195c-2.777.787-5.226 1.12-8.11 1.098l-2.285-.01-2.355-.025-2.402-.014q-2.925-.02-5.848-.049c-1.28-4.213-.672-6.896 1-11 4.657-3.15 10.54-2.32 15.875-1.625"/><path fill="#95918d" d="M224 167h3c-.122 4.042-1.563 5.773-4.375 8.438l-1.922 1.792c-1.94 1.84-1.94 1.84-3.328 5.02C216 185 216 185 213.758 186.281c-4.03 2.511-6.682 6.027-9.653 9.688-1.386 1.61-1.386 1.61-4.105 4.031-2.656.11-2.656.11-5-1-1.812-2.062-1.812-2.062-3-4 4.26-3.764 8.518-7.499 13-11l1 3q3.379-3.59 6.75-7.187l1.922-2.042c2.67-2.851 5.23-5.642 7.594-8.76z"/><path fill="#252c35" d="m237 383 3 1v2l6 2-2 2 12 1v5l-14 1 9 1v1h-5l-1 3-3 1-2 13h-3z"/><path fill="#a0b5c4" d="m301 166 3 1c-.555 4.002-2.546 6.032-5.25 8.938l-2.328 2.527a259 259 0 0 1-4.871 4.965 148 148 0 0 0-5.305 5.613l-1.4 1.564a627 627 0 0 0-2.828 3.196c-2.458 2.732-4.552 4.868-8.018 6.197l-4-5 8-9 1 4h2l.813-1.812c1.18-2.175 2.455-3.456 4.187-5.188l1-3c1.637-1.578 1.637-1.578 3.688-3.25 3.898-3.294 7.087-6.8 10.312-10.75"/><path fill="#2a3946" d="M364 304q7.663-.037 15.326-.055 2.609-.008 5.218-.02c2.494-.013 4.989-.018 7.483-.023l2.37-.015c1.869 0 3.736.051 5.603.113 1 1 1 1 1.063 4.563L401 312l3 1h-4v-7l-4 2v31h-1v-29h-24v-3h-8z"/><path fill="#634a42" d="M170 367c7.277-.102 14.554-.172 21.832-.22q3.712-.03 7.423-.082c3.562-.048 7.124-.071 10.686-.089l3.338-.062c6.486-.002 10.456.567 15.721 4.453 1.938 2.25 1.938 2.25 3 4l-1 2c-3.665-1.93-5.333-3.23-7-7l-1.688.007q-8.686.032-17.373.048-3.243.008-6.487.02c-3.105.013-6.21.018-9.315.023l-2.936.015h-2.73l-2.402.007C179 370 179 370 176 369v7l6 2v6c-3.245-1.384-5.013-2.873-7.125-5.687l-1.508-1.95c-1.73-2.992-2.46-6.04-3.367-9.363"/><path fill="#2f2e2e" d="M119 303c3 1 3 1 4 3h5c-2.191 2.191-4 2.985-6.812 4.25-4.784 2.388-7.531 4.056-10.188 8.75-.487 3.395-.579 6.613 0 10l2 2 .516-1.934.734-2.503.703-2.497C116 322 116 322 118.11 321.215L120 321c0 4.127-.455 7.915-1 12h9v2c-5.688 1.497-10.418.335-16-1v-2l-5-1c-.233-5.716-.123-10.636 2-16l3-1a276 276 0 0 0 4.625-7.187l1.352-2.168z"/><path fill="#5b6877" d="M107 336q2.67.732 5.336 1.477c8.764 1.722 17.974.852 26.59-1.235L141 336c2 2 2 2 2 7h-38c0-5 0-5 2-7"/><path fill="#322b2b" d="M265 177q.079 2.687.125 5.375l.07 3.023C265 188 265 188 263 190l-2-1v-3c-6.397-2.132-11.95-3.355-18.375-.5L240 187h-2v-4l6-3v-3c7.574-2.272 13.322-1.689 21 0"/><path fill="#252528" d="M186 390h1q.33 2.936.625 5.875l.352 3.305L188 402l-2 2h-2v-2h-9l-.184 2.773-.254 3.602c-.08 1.183-.162 2.367-.246 3.586C174 415 174 415 173 417h-5l1-4 2 1q.29-2.218.563-4.437l.316-2.497L172 405l-1-1-2 3 .293-6.055L169 399l-3-2c1-1 1-1 4.598-1.098q2.232.01 4.464.036l2.3.013q2.818.02 5.638.049l-1-5 3 1z"/><path fill="#32241d" d="m259 211 3 1c-5.625 4.875-5.625 4.875-9 6v7c5.202 3.237 5.202 3.237 11 5l-1 5-2.047-.621-2.703-.816-2.672-.81L253 232l-2.117-.687c-3.218-.535-5.953 1.424-8.883 2.687-3.437.188-3.437.188-6 0v-4l1.898-.84 2.477-1.097 2.46-1.09c3.546-1.594 4.556-2.41 6.165-5.973v4h2l-.25-3.75c0-3.188.103-4.04 2-6.75C255 213 255 213 259 213z"/><path fill="#6c5c55" d="M97 367h12v46h-1v-34H97z"/><path fill="#7f5b48" d="M388 367h12v12h-11v33h-1z"/><path fill="#212428" d="M303.426 159.71C305 161 305 161 306 163l-2-.875c-3.625-1.36-7.233-2.231-11-3.125v-2c-7.743.897-14.321 1.842-21 6l-2 3 4-1-1.277 1.828-1.66 2.422-1.653 2.39c-2.05 3.43-2.536 6.441-2.543 10.4l-.004 2.257.012 2.328-.012 2.352c-.095 4.144-.095 4.144 1.137 8.023l-2 2c-4.062-6.4-4.062-6.4-3.75-9.437L263 188h1l-.062-3.812c-.047-2.829.145-4.437 1.062-7.188l-3 1c.574-7.17 3.049-11.366 8.25-16.187 9.53-7.645 22.739-8.7 33.176-2.102"/><path fill="#937664" d="M172 383c2.64 1.828 2.64 1.828 5.25 4.25l2.64 2.39c2.027 2.267 2.757 3.398 3.11 6.36q-3.906.118-7.812.188l-2.237.076c-5.432.073-5.432.073-7.94-1.557-1.72-2.904-1.362-5.435-1.011-8.707 2.082-3.397 4.206-3.464 8-3"/><path fill="#332928" d="m173 271 2 1c.356 6.764.63 13.528.858 20.297q.147 3.795.35 7.59c.208 3.912.349 7.822.48 11.738l.242 3.75c.08 3.48.05 6.283-.93 9.625-2.982 2.924-6.158 4.45-10 6l-2.067 1.01c-3.255 1.558-5.255 1.99-8.933 1.99v2c-2.405 1.203-3.95 1.1-6.625 1.063l-2.477-.028L144 337l1-4 1.648.602c8.607 1.458 20.364-5.943 27.352-10.602.41-2.04.41-2.04.254-4.477l-.082-2.993c-.397-8.13-.872-16.253-1.393-24.376q-.226-3.589-.44-7.177l-.147-2.204c-.221-3.773-.147-7.107.808-10.773"/><path fill="#6e493b" d="M341 174h1c.686 23.403-.417 40.083-16.95 57.871L323 234l-1.645 1.785C320 237 320 237 318 237c2.048-4.608 5.18-8.7 9-12h2l.813-1.75C331 221 331 221 332.563 219.188c1.944-2.96 2.002-5.705 2.437-9.188l.984-1.93c1.13-2.303 1.444-4.152 1.704-6.695l.261-2.352c.211-2.094.211-2.094-.949-4.023.477-1.6.957-3.2 1.457-4.793.871-3.541 1.048-7.123 1.297-10.754C340 177 340 177 341 174"/><path fill="#826452" d="M161 175c3.362.915 6.68 1.945 10 3l3.23.926c8.083 2.707 8.083 2.707 10.055 6.633a88 88 0 0 1 1.235 5.796c1.266 6.971 7.042 11.604 12.48 15.645 7.268 3.8 17.142 2.429 25 1v2c-5.688 3.792-14.288 4.038-21 3-4.776-1.971-8.314-5.452-12-9l-3-2c-4.446-5.923-5.58-10.695-5-18l-2.625.188c-3.914-.218-5.926-1.362-9.375-3.188-2.974-1.084-5.98-2.054-9-3z"/><path fill="#aa734e" d="M332 384c2 2 2 2 2.375 5.438C334 393 334 393 332.461 394.71c-3.384 1.773-6.493 1.614-10.211 1.476l-2.113-.04A395 395 0 0 1 315 396c.324-2.367.324-2.367 1-5 2.813-2.125 2.813-2.125 6-4l2-1.75c2.778-1.736 4.791-1.599 8-1.25"/><path fill="#6b4a3d" d="M345 287c4.222 6.333 4.6 13.584 4 21-1.667 7.226-5.784 12.96-12 17-8.33 4.88-16.679 4.416-26 4v-13h1l2 12c7.77-.426 7.77-.426 15-3l1-2 3 1c2.128-.157 2.128-.157 4-1l1-3 1.875-1.687c5.642-6.14 5.524-13.444 5.313-21.313l-.042-2.926A611 611 0 0 0 345 287"/><path fill="#6c4a3e" d="M160 175h1l.044 1.693c.076 2.582.172 5.163.268 7.744l.069 2.663c.217 5.345 1 9.881 2.89 14.894.745 2.05 1.25 4.067 1.729 6.194.953 3.635 2.105 6.575 4 9.812l2 1 1.313 2.75c2.075 3.998 4.597 7.205 8.687 9.25l1 3a90 90 0 0 0 4 2l1 2c1.687.728 3.376 1.452 5.078 2.145 2.938 1.307 5.356 2.914 7.922 4.855v2c-16.07-6.004-28.7-16.954-35.973-32.55-4.07-9.706-5.177-18.337-5.09-28.825l.014-3.098q.018-3.763.049-7.527"/><path fill="#2c2726" d="m191 85-2 1v2l2.063.625C196.174 91.018 200.069 95.009 204 99h-2l2 4 3.125-1c3.36-.972 6.366-1.171 9.875-1v-2c6.8-1.904 12.92-3.409 20-3v1l-1.86.471c-2.842.727-5.678 1.472-8.515 2.216-.966.245-1.931.49-2.926.74-6.004 1.592-11.214 3.633-16.627 6.693C205 108 205 108 202 107c-1.324-2.293-1.324-2.293-2.687-5.187C195.663 94.804 190.992 91.372 184 88v-2c2.463-1.231 4.28-1.072 7-1"/><path fill="#67493d" d="M234 367h30l-6 11-2 7h-15l-2.832-9.863c-1.104-2.965-1.877-4.109-4.168-6.137zm6 4 2 12c3.687.922 6.25 1.39 10 1 3.236-2.158 4.32-4.435 5.375-8.062 1.088-3.979 1.088-3.979-1.375-6.938-2.757-.442-2.757-.442-5.875-.312l-3.18.011c-3.245.156-3.245.156-6.945 2.301"/><path fill="#8b654f" d="M180 252c2.92.68 5.351 1.581 8 3v2l-1.793.078c-5.257.377-8.384.98-12.207 4.922-5.345 10.69-.5 32.364 0 44l-2 1v-17h-2l-.184-3.691-.254-4.872-.119-2.423-.127-2.393-.117-2.383c-.165-2.5-.165-2.5-1.105-5.894-.104-3.71.165-4.167 2.433-6.871a140 140 0 0 1 3.41-3.41l1.749-1.784A303 303 0 0 1 180 252"/><path fill="#23292f" d="m306 86 2 1v1l5 1-2.25 2.188c-4.776 4.884-7.883 9.666-10.75 15.812-5.636-.656-10.61-2.56-15.875-4.562l-2.664-.999Q278.227 100.227 275 99c4.08-1.21 6.96-.605 11.125.313l3.758.8C293 101 293 101 295 103c2.069.643 2.069.643 4 1 .151-3.629.151-3.629-1-7h2l-.715-1.766C299 93 299 93 300.434 91.078l2.003-1.828 1.997-1.86z"/><path fill="#9d7f6c" d="M190 90c2.256 1.531 4.037 3.09 6 5l-2 2-1.187-1.375C190.692 93.724 188.67 92.938 186 92v-2h-16l-1 2c-2.074.93-2.074.93-4.687 1.875-4.259 1.63-7.644 3.44-11.313 6.125l-3 2c1.367-5.64 5.44-8.788 10-12 10.441-5.732 19.4-5.12 30 0"/><path fill="#e9f0f1" d="M293.563 161.375 297 162c0 5.706-2.77 7.794-6.531 11.848-3.317 2.891-5.151 3.336-9.469 3.152l1-4-2-1c8.27-10.72 8.27-10.72 13.563-10.625"/><path fill="#a7876f" d="m250.438 95.875 2.697-.012c5.698.009 11.213.412 16.865 1.137-3.22 1.728-4.86 2.171-8.5 1.625-11.354-1.386-21.841-.946-32.5 3.375l-3.562.438c-3.605.59-4.686 1.343-7.438 3.562-4.634 1.896-9.06 2.489-14 3 3.167-3.674 6.058-5.028 10.625-6.562l3.766-1.27L222 100l2.86-.95c8.526-2.713 16.685-3.213 25.577-3.175"/><path fill="#16212b" d="M383 367h1l1 15h1c.84 9.024 1.114 17.94 1 27v5l-4 2z"/><path fill="#27323b" d="M196 86c3.605 2.967 6.507 5.522 8 10l-3 1c-1.648-1.11-1.648-1.11-3.375-2.75-2.171-1.991-4.007-3.477-6.562-5L189 88v-2h-5l-1 2-4-2 1-2h-2v-2l-2-1c7.188-2.488 13.946 1.257 20 5"/><path fill="#f0ebe9" d="M260 418h46c-3.129 3.129-4.799 3.95-9 5l-3-1c-4.378-.883-8.537-1.135-13-1.125l-3.562-.008c-3.235.125-6.263.523-9.438 1.133v-2l-2.875.125C262 420 262 420 260 418"/><path fill="#87949f" d="M368 310h4v32l-4-2z"/><path fill="#202a33" d="M352 299h3c.737 9.437-1.001 17.843-7.25 25.188L345 327l-3-4 2-1 1-3 2-1v-3l2-2c.388-2.563.388-2.563.5-5.437.206-3.86.303-5.267 2.5-8.563"/><path fill="#52595e" d="m218 180 2 1c.613 8.773.613 8.773-1.562 13.125-3.299 2.537-5.377 2.401-9.438 1.875l-2-2c.11-3.172 1.246-4.278 3.375-6.687C213 185 213 185 216 184c1.209-2 1.209-2 2-4"/><path fill="#6b4a3c" d="M173 306h1c.428 1.982.728 3.99 1 6l.383 2.637c.604 7.147.604 7.147-1.899 10.23-7.793 5.57-18.077 8.805-27.484 10.133l-2-4 5-3 1 2-1 2q2.844-.935 5.688-1.875l3.199-1.055c2.744-.943 5.43-1.965 8.113-3.07v-2h4c1.46-5.993 2.415-11.858 3-18"/><path fill="#a5856f" d="M342 90c4.512 3.238 8.769 6.793 11 12l-1 2-2.187-2.875c-2.368-2.862-4.3-3.864-7.813-5.125a90 90 0 0 1-4-4l-2-1v-2c-3.126.08-6.25.194-9.375.313l-2.695.068-2.578.107-2.38.08c-2.372.28-2.372.28-3.972 3.432l-5-1c8.294-9.027 22.175-7.563 32-2"/><path fill="#6a7681" d="M406 422a42.4 42.4 0 0 1 5 8q-3.404 2.689-6.812 5.375l-1.948 1.54-3.614 2.848c-1.498 1.14-3.06 2.193-4.626 3.237l-5-3c2.435-1.948 4.688-3.344 7.5-4.75 4.134-2.302 5.466-5.031 7.5-9.25l1.25-2.437z"/><path fill="#f1ebe8" d="M193 418h42v3c-2.655 1.328-4.312.888-7.25.563-7.942-.862-7.942-.862-15.75.437v-2l-2.45.219-3.238.281-3.199.281L200 421l-2.77.219L195 421z"/><path fill="#938f88" d="m298 163 4 2c-2.206 4.041-4.802 7.071-8.062 10.313l-2.66 2.675C289 180 289 180 287 180l-.187 1.625c-1.213 3.545-3.26 5.634-5.813 8.375h-2c-.279-2.949-.417-4.461 1.434-6.852l2.003-1.773A104.7 104.7 0 0 0 298 163"/><path fill="#a27f67" d="M97 379h2l1 24 3 1 3 3 1-28h1v33c-8-6-8-6-11-9-.34-2.544-.34-2.544-.293-5.543l.03-3.252c.024-1.12.05-2.239.076-3.392l.04-3.428q.054-4.193.147-8.385"/><path fill="#928e86" d="m222 164 4 3-1.937 1.938-1.375 1.378a747 747 0 0 1-3.813 3.774c-3.597 3.554-7.117 7.102-10.375 10.972L206 188h-1c-.5-2.5-.5-2.5 0-6 1.762-2.179 3.704-4.006 5.762-5.906 2.818-2.636 5.285-5.503 7.793-8.43A72 72 0 0 1 222 164"/><path fill="#2d3136" d="M163 387h1l1 8h2v2l1.5 1.375C170 400 170 400 170 404l2-1c1.386 2.771 1.188 4.933 1 8l-2 3-3-1v-11l-5-1c-4-4.108-4-4.108-4-8l3-1z"/><path fill="#322625" d="m333 221 1 3c-1.328 2.445-1.328 2.445-3.25 5.125l-1.89 2.695C327 234 327 234 324 235v2l-5 1v2l-1.828.988-2.422 1.325-2.39 1.3c-4.725 2.569-4.725 2.569-7.11 7.075L305 253h-5c-.687-1.812-.687-1.812-1-4 2.304-2.99 5.252-4.199 8.625-5.75 9.729-4.776 20.387-12.273 25.375-22.25"/><path fill="#774c35" d="M355 118h1c-.215 8.43-2.934 13.45-8.375 19.75-3.576 3.065-7.289 5.682-11.937 6.813-2.109.346-2.109.346-3.688 3.437-.379-2.27-.379-2.27 0-5 2.598-1.887 2.598-1.887 6.063-3.687C346.87 134.388 351.526 127.399 355 118"/><path fill="#342826" d="m132 320 3 1-1 10 3.438-1.875 1.933-1.055c1.795-.984 1.795-.984 2.629-3.07h6l-1 5c-3 0-3 0-5-1l-3.062 2.563c-3.139 2.28-3.747 2.446-7.875 2.25L128 333c.595-9.595.595-9.595 4-13"/><path fill="#2f3c46" d="m169 365-5 4v-2h-49v-1l26-1v-1c21.867-2.822 21.867-2.822 28 1"/><path fill="#242e37" d="M260 395v21h-3v-14h-12l1-3c2.434-.914 2.434-.914 5.438-1.625 2.552-.619 6.044-2.375 8.562-2.375"/><path fill="#6a4837" d="M145 112h1l.262 1.836c1.481 8.834 3.98 16.317 11.113 22.102 3.712 2.636 7.352 4.516 11.625 6.062v3c-7.824-1.397-12.67-4.67-18.25-10.25-4.7-7.387-6.418-14.03-5.75-22.75"/><path fill="#252223" d="M261 384h1c.134 11.045-.236 21.98-1 33h-5v-15h1v14h3l-1-20-4 2c-3.234.195-3.234.195-6.75.125l-3.547-.055L242 398l-1-2h15v-6l2 4c1.422-3.317 2.39-6.442 3-10"/><path fill="#cfd1d1" d="M406 367h1q.112 6.244.165 12.488.022 2.121.061 4.242c.037 2.04.054 4.08.067 6.122l.048 3.713c-.378 3.804-1.442 6.146-3.341 9.435l-1.687 3.125c-2.848 3.54-5.919 5.63-10.313 6.875-2.25-.402-2.25-.402-4-1q2.341-2.127 4.688-4.25l2.636-2.39a115 115 0 0 1 5.383-4.47c2.97-2.449 4.201-4.026 4.612-7.893l.095-3.634.117-3.935.094-4.115q.057-2.076.117-4.15.142-5.081.258-10.163"/><path fill="#8b664f" d="M311 258h2c4.422 4.668 4.428 8.79 4.352 15.059l-.102 3.316-.055 3.387A763 763 0 0 1 317 288h13l1 3h-17l.105-5.766q.043-3.742.082-7.484l.077-3.8.029-3.653.048-3.364c-.38-3.267-1.243-4.482-3.341-6.933z"/><path fill="#a08a77" d="M274 165c3.313.125 3.313.125 6 1l-1 3h-2l-.812 2.313c-1.16 2.623-1.94 3.958-4.188 5.687-2.187.688-2.187.688-4 1l.688 3.313L269 185c-1.48 1.73-1.48 1.73-3 3-.437-8.048.543-13.792 5.313-20.5z"/><path fill="#f1ece6" d="m301 166 3 1c-.544 4.053-2.627 6.083-5.375 9-2.719 2.905-5.304 5.766-7.625 9l-4-1c0-4 0-4 1.54-5.676l2.085-1.637c3.965-3.26 7.132-6.714 10.375-10.687"/><path fill="#2f241f" d="M260.25 199.438C263 201 263 201 264 202c.04 2 .043 4 0 6h-1l-1-5c-7.791-3.68-17.129-1.683-25 1l1 7-3-2c-.397-3.106-.607-5.105 1.188-7.75 6.701-4.622 16.63-4.958 24.062-1.812"/><path fill="#1d2832" d="M280 94q2.126.429 4.25.875l2.39.492C289 96 289 96 291.11 97.07c1.988 1.15 1.988 1.15 4.89.93l2-3h2c0 3.273-.3 5.847-1 9-4.875-.875-4.875-.875-6-2a312 312 0 0 0-8.434-1.11C282 100 282 100 280.652 97.485 280 95 280 95 280 94"/><path fill="#596168" d="M294 182c.274 5.384.375 8.545-3 13-1 1-1 1-4.562 1.063L283 196c0-5.425 2.325-7.28 6-11 3.58-3 3.58-3 5-3"/><path fill="#18242f" d="m329 364 54 1v1h-49l-1 6-2-1-3 5c-1-2-1-2 1-12"/><path fill="#826453" d="M321 252c9.895 3.903 17.823 18.719 22 28 .715 3.918.715 3.918 1 7h-2q-.755-2.186-1.5-4.375l-.844-2.46C339 278 339 278 339 276h-2l-1.375-3.437c-1.196-3.61-1.196-3.61-3.625-4.563l-3-6a100 100 0 0 0-3-3v-2l-4-1z"/><path fill="#c1d1d9" d="M401 317c5 2 5 2 7 4 .445 4.007.634 6.147-1.812 9.438C404 332 404 332 401 332z"/><path fill="#8b664e" d="M320.188 295.875 324 296c-4 3-4 3-6.187 4.125-4.328 4.476-2.91 13.151-2.848 19.004L315 321h-3c-.21-16.4-.21-16.4 1-23 3.089-2.06 3.71-2.239 7.188-2.125"/><path fill="#e4eded" d="M224 167h3c-.124 4.077-1.602 5.811-4.437 8.5l-1.907 1.785c-1.975 2.045-2.91 3.98-3.656 6.715h-5c.495-4.312 1.708-6.145 4.875-9.062 2.143-1.998 4.014-3.78 5.695-6.184z"/><path fill="#68493e" d="M309 376h2c-2.57 29.785-2.57 29.785-7 40l-2-1 .805-3.523c2.06-9.264 3.719-18.409 4.599-27.863.51-5.443.51-5.443 1.596-7.614"/><path fill="#34231c" d="M303.426 159.71C305 161 305 161 306 163l-2-.875c-3.625-1.36-7.233-2.231-11-3.125v-2c-13.303 1.48-13.303 1.48-24 9-1.176 2.1-1.176 2.1-2 4h-2l-2 7c-.84-2.362-1.173-3.554-.25-5.93 4.225-6.575 9.186-12.128 16.82-14.593 8.613-1.69 16.348-1.512 23.856 3.234"/><path fill="#8e654d" d="m155 97 2 1-1.812 1.5c-6.894 7.878-5.489 17.7-5.188 27.5-3.738-3.738-4.292-7.729-4.312-12.875.095-5.173.617-8.697 3.312-13.125 2.063-1.312 2.063-1.312 4-2z"/><path fill="#ab744d" d="M170.438 386.75 174 387l2 3 3 1v4q-2.406.079-4.812.125l-2.708.07C169 395 169 395 166 393c-.25-2.562-.25-2.562 0-5 1-1 1-1 4.438-1.25"/><path fill="#312728" d="m312 375 3 1v8l-2-1-5 27h-2q.787-6.273 1.6-12.543.273-2.13.54-4.262.388-3.074.79-6.144l.476-3.73c.542-3.031 1.327-5.526 2.594-8.321"/><path fill="#17232e" d="M405 313c3.269.242 4.295 1.275 6.75 3.563 2.973 3.737 2.65 6.806 2.25 11.437l-1-4-4 2-1.187-2.75c-1.892-3.391-3.668-5.04-6.813-7.25h3z"/><path fill="#6d4537" d="M316.063 249.938 319 250l1 4c-1.55.897-3.116 1.767-4.687 2.625l-2.637 1.477c-2.676.898-2.676.898-5.508.046L305 257c.125-1.875.125-1.875 1-4 3-1.187 3-1.187 6-2 1-1 1-1 4.063-1.062"/><path fill="#2d2827" d="m323.188 289.875 3.292.055 2.52.07v5l-15 2v-5c3.527-2.351 5.029-2.214 9.188-2.125"/><path fill="#e3edee" d="m282 173 1 3h5c-6.15 7.483-6.15 7.483-10 10-1.323-2.615-2.435-5.115-3-8 1.993-3.679 2.718-5 7-5"/><path fill="#2e2d2e" d="m191 85-2 1v2l2.063.625C196.174 91.018 200.069 95.009 204 99h-2l2 5c-1.836-.238-1.836-.238-4-1-1.352-1.855-1.352-1.855-2.625-4.187-2.995-4.848-6.398-7.033-11.398-9.622L184 88v-2c2.463-1.231 4.28-1.072 7-1"/><path fill="#83604a" d="M257.563 181.5 261 183v3l-3-1c-5.43-1.525-10.089-1.85-15.375.5L240 187h-2v-4c6.519-4.011 12.498-4.126 19.563-1.5"/><path fill="#8d7363" d="M332 384c2 2 2 2 2.125 5.625L334 393l-2 1v-7c-7.452 1.614-7.452 1.614-12.562 6.625-.475.784-.95 1.567-1.438 2.375h-3c.125-2.25.125-2.25 1-5 2.813-2.125 2.813-2.125 6-4l2-1.75c2.778-1.736 4.791-1.599 8-1.25"/><path fill="#6c4d43" d="m176 330 2 13h-8c-.626-8.144-.626-8.144 1.875-11.562C174 330 174 330 176 330"/><path fill="#2f2e31" d="m169 250 1 3h5c-1.382 3.21-2.924 5.05-5.625 7.25l-1.914 1.578L166 263l-1-4h-2c1.312-3.937 2.92-6.227 6-9"/><path fill="#999089" d="m211.25 160.938 3.266.027L217 161l-1.828.867c-2.68 1.398-4.855 3.202-7.172 5.133l-2-1v-2l-5 1-1 3c-1.875 1.25-1.875 1.25-4 2l-3-1a414 414 0 0 1 3.75-3.437l2.11-1.934c3.939-2.998 7.547-2.744 12.39-2.691"/><path fill="#b57e57" d="m177 88.875 3.813-.008C184 89 184 89 186 90v2h2l1 3-3 1-3-2c-3.639-.616-7.28-1.018-10.945-1.437L169 92l-1-2c2.972-1.486 5.696-1.132 9-1.125"/><path fill="#e4ebeb" d="M94 401c3.626 1.556 6.169 3.78 9.063 6.438l2.597 2.37c1.816 1.701 3.598 3.416 5.34 5.192-4.626.323-7.28-.155-11-3v-2h-2v-2h-2z"/><path fill="#967b6a" d="M242 391h14v5h-14z"/><path fill="#5c4b47" d="M280.092 366.886h3.215l3.482.016 3.556.005c3.76.005 7.52.018 11.28.03q3.816.008 7.633.014 9.371.017 18.742.049c-3.217 2.145-3.954 2.237-7.636 2.164l-2.843-.04-3.068-.07-6.437-.074q-5.072-.073-10.145-.172c-3.264-.06-6.528-.096-9.793-.128l-3.044-.082c-6.339-.045-9.744.943-15.034 4.402l-2-1c4.385-3.577 6.44-5.127 12.092-5.114"/><path fill="#946042" d="m106 369 1 10h-8c-.224-3.29-.304-5.423 1.25-8.375C102 369 102 369 106 369"/><path fill="#cbd6dd" d="m164 336-1 7h-15l1-3a65 65 0 0 1 7-2.187l1.984-.538C162.751 336 162.751 336 164 336"/><path fill="#a1988e" d="m288.25 160.875 3.828.055L295 161v1l-3.187.625c-4.457 1.232-6.171 3.693-8.813 7.375l-1-4-7 1c.912-2.28 1.58-3.71 3.625-5.125 3.275-1.207 6.147-1.064 9.625-1"/><path fill="#332625" d="M183 376h4c1.23 4.533 1.604 9.087 2.063 13.75l.275 2.633A133 133 0 0 1 190 408h-1c-2.18-8.565-3.054-17.231-4-26h-2z"/><path fill="#2f2724" d="M96 368h1v34l-4-4h2l-.016-2.539q-.025-4.657-.039-9.314-.012-3.009-.033-6.018l-.01-3.809-.016-3.523C95 370 95 370 96 368"/><path fill="#1b242c" d="M400 343c2.229-.081 4.458-.14 6.688-.187l3.761-.106c3.775.311 5.572 1.015 8.551 3.293 1.313 2.188 1.313 2.188 2 4h-3l-2 2-1.469-1.496c-4.843-4.63-7.802-6.384-14.531-6.504z"/><path fill="#734b3b" d="m119 325 10 1-1 7h-9z"/><path fill="#26313d" d="M172 399h8v2h-5l-.184 2.992-.254 3.883c-.08 1.276-.162 2.552-.246 3.867C174 415 174 415 173 417h-5l1-4 2 1 1-9-2-1z"/><path fill="#1c2229" d="M166 382a337 337 0 0 1-1.312 4.875l-.739 2.742C163 392 163 392 160 394l-1 2c-1.737-1.737-1.294-4.01-1.375-6.375.02-3.008.02-3.008.375-5.625 3.029-2.947 3.97-3.344 8-2"/><path fill="#d5a984" d="m250.918 230.488 2.27.825c3.909 1.379 7.817 2.582 11.812 3.687l-1 2c-5.06.172-8.332.035-13-2-2.326-.381-4.66-.725-7-1 4.056-4.24 4.056-4.24 6.918-3.512"/><path fill="#d4e6ef" d="M398 408c2.686 2.686 3.06 5.376 4 9l-5 5-4-2c1.142-4.48 2.43-8.145 5-12"/><path fill="#634b44" d="M317.824 247.574C320 249 320 249 322 252l-2 1-1-2c-2.917-.167-2.917-.167-6 0l-2 2c-2.625.625-2.625.625-5 1l-1 3h-15v-1l1.66.063c7.164-.187 12.113-2.74 18.073-6.444 4.624-2.75 4.624-2.75 8.091-2.045"/><path fill="#646f7c" d="M310 335h8c.222 2.74.348 4.44-1.125 6.813-2.65 1.678-4.807 1.392-7.875 1.187z"/><path fill="#91664c" d="m277 208 3.07.656 4.055.844 2.016.434c4.013.826 7.763 1.362 11.859 1.066a100 100 0 0 0 4-3l3 1c-5.597 4.957-11.716 5.115-19 5-2.846-.428-5.259-1.086-8-2z"/><path fill="#977e6a" d="m250.438 95.875 2.697-.012c5.698.009 11.213.412 16.865 1.137-3.22 1.728-4.86 2.171-8.5 1.625-8.632-1.054-16.79-1.154-25.246 1.035-2.65.4-4.672-.009-7.254-.66 6.094-4.063 14.324-3.156 21.438-3.125"/><path fill="#283741" d="m328 406 1 7h1v5h-6l-1-11c4-1 4-1 5-1"/><path fill="#584945" d="M325 334h5v9h-8z"/><path fill="#343133" d="M160 197h1l.586 2.45.789 3.238.773 3.199c.77 3.093.77 3.093 2.016 5.82C166 214 166 214 165 217l-1-2-1 3h-2l1-5-5-1 1.5-1.875c2.105-4.385 1.75-8.342 1.5-13.125"/><path fill="#806456" d="M341 174v3l-3.437.938c-3.35.691-3.35.691-4.563 2.062-1.348.298-2.704.563-4.062.813-4.814 1.01-8.63 2.838-12.938 5.187v-4q5.685-2.006 11.375-4l3.273-1.156 3.125-1.094 2.889-1.016C339 174 339 174 341 174"/><path fill="#343639" d="M184 174c1.938.313 1.938.313 4 1 .96 2.882 1.106 4.699 1.063 7.688l-.028 2.449L189 187l-2-3-1 2h-3c-.925-4.716-1.23-7.673 1-12"/><path fill="#302724" d="M275 98c4.283.571 8.55 1.225 12.813 1.938l2.832.464C293 101 293 101 295 103c2.57.648 2.57.648 5 1v3c-5.636-.656-10.61-2.56-15.875-4.562l-2.664-.999Q278.227 100.227 275 99z"/><path fill="#1d2730" d="M171 80h9l-2 4h2v2l-16 2c2-3 2-3 4.063-4 2.29-.897 2.29-.897 2.937-4"/><path fill="#36261f" d="m211.125 155.75 3.633-.016c3.026.248 4.705.676 7.242 2.266v2l-2.078-.484c-9.01-1.59-17.494-1.004-25.922 2.484 4.817-5.558 9.99-6.28 17.125-6.25"/><path fill="#1d2832" d="M350 284c2.18 1.759 2.937 2.694 3.512 5.48l.175 2.707.2 2.731L354 297l-4-1 1-2-3-1-1-7h3z"/><path fill="#bb9a7e" d="M261 212c.688 1.813.688 1.813 1 4-1.842 2.486-3.005 3.002-6 4v7l-4-2c-.5-3.187-.5-3.187 0-7 2.43-2.147 5.127-3.53 8-5z"/><path fill="#57666d" d="m212 175 4 2q-2.465 2.755-4.937 5.5l-1.42 1.59A211 211 0 0 1 206 188h-1c-.437-2.562-.437-2.562 0-6 2.087-2.62 4.467-4.816 7-7"/><path fill="#272527" d="M283 157h10v2l2.625-.25c4.135.306 6.121 1.771 9.375 4.25l-1 3a605 605 0 0 1-5-2l-1.855-.73c-5.032-2.044-5.032-2.044-6.145-4.27-1.895-.465-1.895-.465-4.062-.625L283 158z"/><path fill="#6e7074" d="m249.625 200.938 3.04.027L255 201l1 4h-13l-1-3c2.645-1.322 4.678-1.097 7.625-1.062"/><path fill="#bd9a7f" d="m263 194 1.688 2.125A585 585 0 0 0 272 205l-6-1-2 3-.625-2.875c-1.083-3.417-1.083-3.417-4.5-4.5L256 199v-1h6z"/><path fill="#455964" d="m288 176 3 2-1.937.75c-2.223 1.016-2.223 1.016-2.5 3-.894 3.575-3.064 5.569-5.563 8.25h-2c-.281-2.2-.281-2.2 0-5 1.969-2.457 1.969-2.457 4.5-4.812l2.531-2.395z"/><path fill="#372d27" d="M166 171c5.857 1.662 11.459 3.47 17 6l-1 5h-3v-3l-4-1v-2l-1.687-.375c-2.534-.685-4.892-1.616-7.313-2.625z"/><path fill="#202329" d="m308 406 3 4 1-2c-.875 6.75-.875 6.75-2 9h-6l2-7h2z"/><path fill="#292423" d="m259 211 3 1c-5.625 4.875-5.625 4.875-9 6v10l-1-2-6 1 2-6 1 4h2l-.25-3.75c0-3.188.103-4.04 2-6.75C255 213 255 213 259 213z"/><path fill="#9e8c7f" d="M278 197c6.646 1.477 6.646 1.477 8.438 4.125L287 203c-6.277 1.354-6.277 1.354-9.937-.437L275 201z"/><path fill="#1d242d" d="M322 80h12v2l-4 2 1 2h-9l1-4z"/><path fill="#283843" d="M335 329c2.236 3.353 2.173 3.907 1.625 7.688l-.336 2.449L336 341l-3 1c-1.23-3.689-1.557-7.137-2-11z"/><path fill="#e8e5e0" d="M206 189c-.275 3.94-.802 5.754-3.312 8.875C200 200 200 200 196 200c1.352-2.939 2.9-5.292 5-7.75l1.563-1.86C204 189 204 189 206 189"/><path fill="#262424" d="M225 165c6.432.485 6.432.485 9 2.813 1 2.187 1 2.187.813 4.25C234 174 234 174 232 177q-1.47-2.437-2.937-4.875l-1.653-2.742A71 71 0 0 1 225 165"/><path fill="#826354" d="M168 149c1.308 3.934.27 5.918-1.297 9.695-1.233 4.042-.934 8.124-.703 12.305l-4-1c.68-7.337 1.855-14.782 6-21"/><path fill="#2f2827" d="M146 103h2l-.437 1.617c-2.457 9.86-1.983 17.816 1.437 27.383l-3-1c-2.068-5.333-2.202-10.573-2.25-16.25l-.028-2.114c.023-3.705.234-6.49 2.278-9.636"/><path fill="#312725" d="m117 321 4 1a441 441 0 0 1-.875 4.938l-.492 2.777L119 332l-2 1-2-1c-.25-7.625-.25-7.625 2-11"/><path fill="#774933" d="M189.625 250.25C193 252 193 252 194 255c-2.625.75-2.625.75-6 1-3.375-1.937-3.375-1.937-6-4 1.905-3.81 3.971-3.01 7.625-1.75"/><path fill="#2e221a" d="m246 228-1 5-9 1v-4c3.62-1.316 6.096-2 10-2"/><path fill="#343232" d="m225 199 3 1c.688 2.063.688 2.063 1 4l-7 4-4-4c2.297-1.743 4.599-3.4 7-5"/><path fill="#cfdbe4" d="m348 174 4 1c1.354 2.709 1.065 5.01 1 8l-3 1v8h-1z"/><path fill="#846353" d="M98 368c6.934-.098 6.934-.098 9 0 1 1 1 1 1.098 3.285l-.035 2.777-.028 2.786L108 379h-1l-1-10c-2.517.403-2.517.403-5 2-1.082 2.665-1.493 5.14-2 8h-2z"/><path fill="#1b252f" d="m162 258 3 1c.688 2.063.688 2.063 1 4-3.02 1.93-5.55 3.137-9 4l-1 2-2-1q1.718-2.22 3.438-4.437l1.933-2.497C161 259 161 259 162 258"/><path fill="#526270" d="M217 187c0 2.647-.981 4.58-2 7-5.75-.75-5.75-.75-8-3 5.23-5.59 5.23-5.59 10-4"/><path fill="#2f3136" d="M265 177q.079 2.687.125 5.375l.07 3.023C265 188 265 188 263 190l-2-1v-8l-3-1c4.75-3 4.75-3 7-3"/><path fill="#977a65" d="m332 86-2 3c-3.355.46-6.647.504-10.031.594L317 90l-2 3-5-1c6.012-6.544 13.703-6.412 22-6"/><path fill="#3d4853" d="M118 36c.25 2.313.25 2.313 0 5-2 1.813-2 1.813-4 3v-2l-2.812 2C108 46 108 46 105 46c1.31-3.932 3.013-4.544 6.5-6.687l3.031-1.887C117 36 117 36 118 36"/><path fill="#a0826d" d="M389 379h1l1 27 4 1a91 91 0 0 1-4 4h-2z"/><path fill="#e6f6fd" d="M342 337v3h20v2h-26l1-4c3-1 3-1 5-1"/><path fill="#f0f5f3" d="m274 179 3 1 1 7h-3v2l-4-2c1.875-6.875 1.875-6.875 3-8"/><path fill="#6f4e3e" d="M355 118h1c-.178 6.984-1.89 11.398-6 17l-1.687 2.5L347 139h-2c1.08-2.43 2.131-4.144 3.938-6.125 2.46-3.43 3.364-6.624 4.449-10.668C354 120 354 120 355 118"/><path fill="#202f3a" d="M298 95h2c0 3.273-.3 5.847-1 9-3.558-.61-6.683-1.578-10-3l1-2 2.938-.437L296 98z"/><path fill="#c08e6c" d="m147 292 2 1c-.594 3.538-1.93 5.415-4.312 8.063l-1.801 2.035c-1.86 1.875-3.685 3.445-5.887 4.902h-2v-3l1.77-.227c3.005-1.042 4.03-2.618 5.917-5.148l1.825-2.398c1.64-2.242 1.64-2.242 2.488-5.227"/><path fill="#c1a187" d="m235 209 1.355 1.207c3.992 3.518 3.992 3.518 8.583 6.168C247 218 247 218 247.305 219.957c.007 2.017-.14 4.033-.305 6.043l-3 1v-9l-5-1v-2h-2c-2-3-2-3-2-6"/><path fill="#372a2a" d="M342 176h1c2.5 8.678 3.123 17.753-1 26z"/><path fill="#2d3844" d="m168 402 2 2 2-1c1.386 2.771 1.188 4.933 1 8l-2 3-3-1z"/><path fill="#312c2e" d="M114 327h1v5l13 1v2c-5.688 1.497-10.418.335-16-1v-2l-2-1h3z"/><path fill="#281811" d="M244 198c7.081-.314 12.716-.491 19 3 1 1 1 1 1.063 4.063L264 208h-1l-1-5c-3.52-1.408-6.37-2.1-10.125-1.937-4.147-.067-4.877-.511-7.875-3.063"/><path fill="#1d2632" d="M143 120c2.35 3.524 2.779 5.794 3 10-1.437 2.438-1.437 2.438-3 4-2.153-3.858-3.393-6.551-3-11l2 1z"/><path fill="#624b43" d="M187.438 246.563 190 248q1.899.83 3.813 1.625L197 251v1c-7.625-.875-7.625-.875-11-2-2.657.88-2.657.88-5 2l-2-2c5.271-4.168 5.271-4.168 8.438-3.437"/><path fill="#969189" d="M278 186h1c.438 2.625.438 2.625 0 6-2.095 2.331-4.46 4.173-7 6l-2-3a1496 1496 0 0 1 3.938-4.5l2.214-2.531z"/><path fill="#e9e9e6" d="m207 168 2 2c-4.625 5.75-4.625 5.75-8 8-.733 3.066-.733 3.066-1 6l-5-2z"/><path fill="#19232e" d="M166 373c2.438.625 2.438.625 5 2 .813 3.125.813 3.125 1 6l-4 1v-2l-4-1 3-1z"/><path fill="#594c4a" d="M234 367h30l-3 4-1-2-23-1-1 3z"/><path fill="#6a4e45" d="m110 319 1 3 5 1-2 9c-1.984-1.176-1.984-1.176-4-3-.39-2.48-.39-2.48-.25-5.187l.11-2.731z"/><path fill="#2c343f" d="M322 242a141 141 0 0 1 5 5v2c-4.028 1.15-6.281.963-10-1l-1-2 2.438-.875c2.695-.858 2.695-.858 3.562-3.125"/><path fill="#332627" d="M341 203h1l-1 12h-2l-1 4h-2v2h-2l.836-2.074a859 859 0 0 0 3.789-9.738l1.352-3.52z"/><path fill="#382e2b" d="M222 158c4.57 1.973 7.135 3.922 10 8-2 1-2 1-5.562.188C223 165 223 165 222 163l2-1-4-2h2z"/><path fill="#8b6550" d="M353 103c3.28 4.92 3.588 9.24 3 15-1.5 3.563-1.5 3.563-3 6-1-3-1-3-.562-4.687 1.259-5.178.65-10.183-.438-15.313z"/><path fill="#a1775c" d="M329 387h3v8c-2.765 1.382-5.046 1.095-8.125 1.063l-3.32-.028L318 396l3-6 2 1v4h6v-2h2v-5z"/><path fill="#333136" d="m314 175 1.313 1.438c1.71 1.799 1.71 1.799 4.687 2.562v3h-4l-1 4v-4h-3l-1-6 2 2z"/><path fill="#332b29" d="M165 153c1.285 3.855.405 5.403-.937 9.188l-1.153 3.292L162 168h-1v-10h-2l-1 2v-3z"/><path fill="#ad8d79" d="m146 292 1 3c-1.512 2.48-1.512 2.48-3.687 5.188-.706.9-1.41 1.802-2.137 2.73C139 305 139 305 135 305v3h-3c1.064-3.193 2.594-4.527 5.313-6.312 3.962-2.653 6.11-5.704 8.687-9.688"/><path fill="#aa8b7a" d="m178 251 3 1-1.46 1.426c-.633.622-1.264 1.245-1.915 1.887l-1.898 1.863c-1.908 1.912-1.908 1.912-3.727 4.824-3.125 1.188-3.125 1.188-6 2 3.805-4.56 7.75-8.85 12-13"/><path fill="#ae8b70" d="M309 92v7h-2l-.812 1.813c-1.173 2.16-2.382 3.545-4.188 5.187.263-6.45 2.507-9.48 7-14"/><path fill="#5e463c" d="M311 316h1l2 12h13v1h-16z"/><path fill="#a58e7c" d="m200 167 2 4-4 4-3-1v-3l-2-1z"/><path fill="#815a44" d="M304 157v3l-2.312-.937c-3.9-1.542-7.208-2.282-11.375-2.625l-3.012-.254L285 156v-1c14.042-1.937 14.042-1.937 19 2"/><path fill="#283a47" d="m405 413 3 1-6 9-1-2-5 3c1.408-3.215 3.103-5.322 5.625-7.75l1.914-1.86z"/><path fill="#332a2c" d="M263 368c.625 1.813.625 1.813 1 4l-2 3h-2l.188 2.188c-.223 3.34-1.316 5.082-3.188 7.812-1.56-4.4-.038-6.84 1.875-10.871 1.18-2.234 2.465-4.22 4.125-6.129"/><path fill="#212b36" d="M1 256h1l1 15 3 1-2 7H2C.766 274.23.887 269.575.938 264.688l.013-2.534Q.971 259.077 1 256"/><path fill="#232d37" d="m157 266 3 1-1 3h-3v5l-6-1c1.313-2.5 1.313-2.5 3-5h3z"/><path fill="#362725" d="M191 242c1.656.706 3.3 1.44 4.938 2.188l2.777 1.23C201 247 201 247 201.816 249.676L202 252a109 109 0 0 1-7-1l-1-2 4-1-8-4z"/><path fill="#bf9473" d="M239.188 227.375 242 228c-3.75 2-3.75 2-6 2v4l8-1 1 2-10 1-2-7c3-2 3-2 6.188-1.625"/><path fill="#8c6852" d="M184 169h1l-1 8c-5.76-.606-10.72-2.757-16-5 3.81-1.142 5.344-.567 9 1 1.992.376 3.992.72 6 1z"/><path fill="#d3e6ed" d="m113 57 2 1c-1.246 3.842-2.334 6.115-6 8-2.75-.312-2.75-.312-5-1 2.853-2.932 5.65-5.643 9-8"/><path fill="#a27658" d="M170.438 386.75 174 387l2 3 3 1v4h-5l2-1-1.5-1.375C173 391 173 391 173 389h-5l-2 4a100 100 0 0 1 0-5c1-1 1-1 4.438-1.25"/><path fill="#1f2428" d="M119 303c3 1 3 1 4 3h5c-2.278 2.278-3.938 3.052-7 4-2.312-.375-2.312-.375-4-1 .875-4.875.875-4.875 2-6"/><path fill="#abbbc8" d="m211 181 1 3c2.015.733 2.015.733 4 1l-2.187 1.25c-2.793 1.737-5.283 3.654-7.813 5.75-.392-2.664-.406-4.392 1.113-6.668 1.25-1.483 2.566-2.912 3.887-4.332"/><path fill="#2c2e35" d="M357 122h1l.375 2.875c.342 3.212.342 3.212 2.625 5.125l-2.312.688c-3.262 1.592-3.94 3.214-5.688 6.312l-3 1v-2h2v-2h2l.375-2.625c.606-3.27 1.508-6.248 2.625-9.375"/><path fill="#1c262f" d="M159 335v3c-4.462 1.806-7.31 2.117-12 1v-2l3.75-1 2.11-.562C155 335 155 335 159 335"/><path fill="#19222c" d="M352 299h3q.079 2.406.125 4.813l.07 2.707C355 309 355 309 353 312v-7h-2l-1-3z"/><path fill="#302a28" d="m164 263 2 1a2095 2095 0 0 1-4.437 6l-1.276 1.734A198 198 0 0 1 157 276h-1v-6h3l.25-1.812c.955-2.785 2.321-3.621 4.75-5.188"/><path fill="#77432b" d="M320 252v2c-5.176 3.223-5.176 3.223-7 4l-3-1c.98-2.452 1.687-3.78 3.875-5.312 2.475-.801 3.708-.551 6.125.312"/><path fill="#a7683d" d="M265 245c-2 2-2 2-5 2.063l-3-.063-2 1-2-1c-1.87-.228-3.747-.41-5.625-.562l-3.04-.254L242 246v-1c3.27-.197 6.541-.38 9.813-.562l2.814-.17 2.705-.147 2.491-.143C262 244 262 244 265 245"/><path fill="#18232d" d="M347 202c-.75 7.625-.75 7.625-3 11v-4l-3 1 1-7c3-1 3-1 5-1"/><path fill="#94644a" d="M161 178c6.152.586 6.152.586 8 1l1 2-7-1v12c-2.28-3.42-2.22-4.682-2.125-8.687l.055-3.012z"/><path fill="#e8e6df" d="M227 167c-.332 3.075-.631 4.618-2.812 6.875-2.644 1.36-3.442.965-6.188.125a271 271 0 0 1 2.813-3.5l1.582-1.969C224 167 224 167 227 167"/><path fill="#2b2726" d="m156 89 4 1-2.187 2.125c-2.811 2.803-5.308 5.798-7.813 8.875l-2-3 3-2 1.563-2.625L154 91h2z"/><path fill="#16222c" d="M410 316c2 1.5 2 1.5 4 4 .358 2.759.187 5.201 0 8l-1-4-4 2-1-5 3-2z"/><path fill="#312f2c" d="m252 226 2 1v3l-8 2v-4l-3-1c2.986-1.493 5.709-1.118 9-1"/><path fill="#e4ddd9" d="m279 191 2 1c-.542 3.796-2.201 5.472-5 8l-3-1c1.443-3.366 3.333-5.51 6-8"/><path fill="#22242a" d="M187 180h1l2 12h-2l-1 2-3-10h2z"/><path fill="#d7e4e9" d="m291 177 3 4-3 4-4-1v-4c2-1.75 2-1.75 4-3"/><path fill="#936348" d="M170 146h1c-.61 7.23-2.233 13.279-5 20h-1c1.923-16.923 1.923-16.923 5-20"/><path fill="#2f3438" d="m338 390 2 4h-4v4h-4v-2l-2-1 2.438-.875c2.695-.858 2.695-.858 3.562-3.125z"/><path fill="#7c6e69" d="M242 391h14v5l-1-4q-2.688.715-5.375 1.438l-3.023.808c-2.556.656-2.556.656-4.602 1.754z"/><path fill="#b08f79" d="m120 311-2 4h-2v3h-2l-1 3h-2c.152-2.667.494-4.45 2.332-6.445C117.506 311 117.506 311 120 311"/><path fill="#442c20" d="m319.723 289.902 3.34.036 3.347.027L329 290v5l-3-1 1-2-3.812.625c-3.59.588-3.939.541-7.188-1.625 1-1 1-1 3.723-1.098"/><path fill="#252322" d="m202 204 14 1v1l-10 1 6 1v1h-10z"/><path fill="#ba977b" d="m234 196 6 3-1.937.625c-2.412 1.27-2.412 1.27-2.813 4.5L235 207l-.375-1.937L234 203l-2-1c0-3 0-3 2-6"/><path fill="#28221e" d="M233 194h2c-1.242 3.44-2.557 6.252-5 9h-2l-2-4c3.625-3 3.625-3 7-3z"/><path fill="#9b928b" d="m206 192 3 4h-4l-1 6-7-1 2.25-1.687c2.667-2.243 4.666-4.534 6.75-7.313"/><path fill="#28333d" d="M162 157c-.492 6.523-.492 6.523-3.062 8.938-.64.35-1.28.7-1.938 1.062-1.125-4.75-1.125-4.75 0-7h2v-2c2-1 2-1 3-1"/><path fill="#3f4951" d="M43 107h1c.125 2.875.125 2.875 0 6l-2 2h-3l-1 5-2-3q1.714-2.504 3.438-5l1.933-2.812z"/><path fill="#2f2d2c" d="M343 89h2v2l3 1q1.53 1.47 3 3l2 1c.75 1.938.75 1.938 1 4l-2 2-1.207-1.68-1.606-2.195-1.582-2.18C345.967 93.77 345.967 93.77 343 92z"/><path fill="#121d28" d="M173 404h1q.039 2.688.063 5.375l.035 3.023C174 415 174 415 173 417h-5l1-4 2 1z"/><path fill="#515f6e" d="M142 338h1v5h-24v-1h21v-2h2z"/><path fill="#664c44" d="m148 328 2 2-1 2h5c-2.565 2.565-4.477 2.54-8 3l-2-4z"/><path fill="#40281e" d="m132 320 3 1-1 5-3 1-1 5h-1c-.37-7.385-.37-7.385 1.5-10.5z"/><path fill="#28252a" d="M108 320h2l1 11h-4a585 585 0 0 1-.062-4.375l-.036-2.46C107 322 107 322 108 320"/><path fill="#d1dde4" d="m154 173-1 11-2-2 1-3h-2l-2 2c.346-3.197.571-4.612 3-6.812 2-1.188 2-1.188 3-1.188"/><path fill="#2e2627" d="M170 371c2.3 2.197 4.228 4.512 6.125 7.063l1.57 2.097C179 382 179 382 180 384c-4.777-1.946-8.134-5.144-10.312-9.812L169 372z"/><path fill="#a38775" d="M324 296c-3.41 2.865-6.907 4.347-11 6 .375-2.437.375-2.437 1-5 3.215-1.607 6.436-1.057 10-1"/><path fill="#b5886a" d="m169 262 2 1-9 12-1-3a125 125 0 0 1 3-4v-3c2.375-1.75 2.375-1.75 5-3"/><path fill="#9a6648" d="M166 169c6.503-.465 10.417.674 16 4l1-2v3c-4.29.2-7.08-.334-11-2a127 127 0 0 0-6-1z"/><path fill="#60463d" d="M267 373c.899 2.516 1.162 3.607.125 6.125L266 381l-1 2h-2l-1 4c.413-5.993 1.319-9.25 5-14"/><path fill="#674c42" d="M119 325h1l1 6h4l2-5h2l-1 7h-9z"/><path fill="#352e30" d="M132 325c2 2 2 2 2.125 5.125L134 333c-3.75 1.125-3.75 1.125-6 0-.25-2.312-.25-2.312 0-5 2-1.812 2-1.812 4-3"/><path fill="#e6f6fc" d="M174 413h1c.25 2.813.25 2.813 0 6-1.75 1.875-1.75 1.875-4 3h-4l-1-4h8z"/><path fill="#384955" d="M418 402v2l-3 2-1 3c-2.375 2.25-2.375 2.25-5 4l-3-1 3-1 .875-1.75c1.63-3.259 4.227-7.25 8.125-7.25"/><path fill="#e2f0f8" d="m402 318 4 1c0 3 0 3-2 6-.39 1.99-.732 3.99-1 6h-1z"/><path fill="#9e6947" d="m119 315 2 1-1 4h-4v3l-5-1c2.578-2.648 4.916-4.944 8-7"/><path fill="#735c4d" d="M244 180c6.459-.404 11.061.408 17 3v3c-2.437-.375-2.437-.375-5-1l-1-2c-2.58-.69-2.58-.69-5.562-1.125l-3.067-.508L244 181z"/><path fill="#293541" d="m344 171 1 2c2.025.652 2.025.652 4 1l-3 7c-1.644-2.96-2.546-5.638-3-9z"/><path fill="#ad8a72" d="M232 100c-3.46 2.307-5.925 2.481-10 3l-2 1-2-2c5.203-2.243 8.343-3.556 14-2"/><path fill="#b47d57" d="M332 89h4v2l2.438.875C341 93 341 93 342 95l-2.312-.937C334.827 92.662 330.03 92.34 325 92v-1h7z"/><path fill="#a3836e" d="M399 380h1l1 22h-4l1-2c.151-1.52.249-3.045.316-4.57l.127-2.715.12-2.84.13-2.863q.16-3.506.307-7.012"/><path fill="#917c6f" d="M328.938 383.813C332 384 332 384 334 386c.125 3.625.125 3.625 0 7l-2 1-1-7-3-1-3-1c1-1 1-1 3.938-1.187"/><path fill="#283541" d="m405 364 11 1-1 2c-2.504.414-2.504.414-5.562.625l-3.067.227L404 368z"/><path fill="#685146" d="m134 324 2 1v2l6-1c-2.773 3.08-5.063 4.688-9 6z"/><path fill="#956246" d="M171 290h1q.08 4.438.125 8.875l.05 2.55.02 2.442.032 2.254C172 308 172 308 170 310l-3-1 1.457-1.516c2.063-3.32 2.105-6.432 2.23-10.234l.104-2.113c.082-1.712.147-3.424.209-5.137"/><path fill="#886751" d="m330 293 1 3c-2.9 1.934-3.897 2.301-7.187 2.625L320 299v-4c.957-.09.957-.09 1.934-.184l2.503-.253 2.497-.247c2.053-.105 2.053-.105 3.066-1.316"/><path fill="#2f2320" d="m304 247 2 1-1 5h-5l-1-4h4z"/><path fill="#e7ebec" d="M271 182c.687 2.49 1 4.379 1 7l-4 2c-.75-2.25-.75-2.25-1-5 1.938-2.312 1.938-2.312 4-4"/><path fill="#989490" d="m298 163 4 2c-2.75 4.875-2.75 4.875-5 6v-2h-2z"/><path fill="#362f31" d="M198 161c-.375 2.438-.375 2.438-1 5l-2 1c-2.625-.937-2.625-.937-5-2 2-3 2-3 4-3.687 2-.313 2-.313 4-.313"/><path fill="#4c545d" d="M77 425c3.28.565 4.934 1.37 7 4 1.188 2.688 1.188 2.688 2 5a396 396 0 0 1-3.937-2.812l-2.215-1.583C78 428 78 428 77 425"/><path fill="#877267" d="M172 384q1.913 1.366 3.813 2.75l2.144 1.547c2.093 1.745 3.57 3.416 5.043 5.703v2h-2l-.687-1.812c-1.646-2.743-3.583-3.608-6.313-5.188v-2h-2z"/><path fill="#946649" d="M136 319v6l-2-4c-3.113.669-3.113.669-4.187 3.063L129 326h-2l1-5h2v-2c2.49-1.245 3.41-.777 6 0"/><path fill="#292f3a" d="m350 303 1 2h2v7l-4 1z"/><path fill="#261e1d" d="m152 280 1 2c-1.434 2.602-1.434 2.602-3.437 5.625l-1.997 3.04L146 293l-1-2c.938-2.625.938-2.625 2-5h2v-4z"/><path fill="#151f2a" d="M330.563 231.938 333 232a271 271 0 0 1-2.812 3.5l-1.583 1.969C327 239 327 239 324 239c3.419-6.986 3.419-6.986 6.563-7.062"/><path fill="#a2836d" d="M196 96c2.95 3.459 5.227 6.8 7 11l-1 2-3-2c-.187-2.625-.187-2.625 0-5h-2z"/><path fill="#505a63" d="m427 79 5 5-1 2-5-1c0-3 0-3 1-6"/><path fill="#5d656d" d="M418 71c3.795 1.491 5.61 3.757 8 7l-4 1-1-3-3-2z"/><path fill="#c7d8e0" d="M329 402c2.13 1.065 3.366 2.292 5 4l-3 1v5l-2 1z"/><path fill="#111e28" d="M320 399h5v7l-2 1v-5h-9v-1h6z"/><path fill="#65534e" d="M176 330v6h-3l-2 2c-.187-2.875-.187-2.875 0-6 3-2 3-2 5-2"/><path fill="#d4e2e9" d="M329 236c0 3 0 3-1.625 5.438L326 244c.691 2.303.691 2.303 2 4-2.5-1.812-2.5-1.812-5-4 0-3 0-3 1.313-4.387z"/><path fill="#bca18a" d="M249 230q2.159.68 4.313 1.375l2.425.773C258 233 258 233 261 235c-1.687.688-1.687.688-4 1a113 113 0 0 1-5-3c-2.693-.707-2.693-.707-5-1z"/><path fill="#303031" d="M285.125 204.938 288 206v2c-3 2-3 2-5.187 1.625L281 209l-1-4c2-1 2-1 5.125-.062"/><path fill="#a19287" d="m270 177 3 1c0 3 0 3-1.375 4.688C270 184 270 184 268 184v-6z"/><path fill="#4d5862" d="M475 155c1.748 2.623 2.515 3.995 3 7l-1 2h-3c-.625-2.812-.625-2.812-1-6z"/><path fill="#29333d" d="M342 152c1.125 1.688 1.125 1.688 2 4-.75 2.688-.75 2.688-2 5l-2 1v-9z"/><path fill="#e6e8ea" d="m404 398 2 1c-1.25 2.938-1.25 2.938-3 6-2.187.875-2.187.875-4 1l-1-3z"/><path fill="#d4e6ed" d="m57 377 2 1v2l3 1 1 7c-3.336-2.99-5.15-5.932-7-10z"/><path fill="#657383" d="m107 336 4 2-2 4h-4c.875-4.875.875-4.875 2-6"/><path fill="#7d5037" d="m139 322 3 1v3c-1.812 1.063-1.812 1.063-4 2l-3-1c1-3 1-3 4-5"/><path fill="#d8a67d" d="M236 235h8v2c-3 2-3 2-5.687 1.625L236 238z"/><path fill="#d9a87f" d="M242 195h10v2l-10 1z"/><path fill="#4c4e53" d="M294 182v8h-3c-.687-2.312-.687-2.312-1-5 2.276-3 2.276-3 4-3"/><path fill="#4b5e6b" d="m284 182 1 3c-1.812 2.688-1.812 2.688-4 5h-2c-.312-2.312-.312-2.312 0-5 2.5-1.812 2.5-1.812 5-3"/><path fill="#16212c" d="M149 169h3c2 2 2 2 3 4l-5 1-1-2-4 2c1.813-2.5 1.813-2.5 4-5"/><path fill="#2f3032" d="M305 163h2l2 6h-4l-2-4z"/><path fill="#2c2526" d="m309 89 4 1-8 7-1-4c2.25-2.062 2.25-2.062 5-4"/><path fill="#62483c" d="M315 376c1.938.75 1.938.75 4 2 .75 2.125.75 2.125 1 4l-4 2z"/><path fill="#26313b" d="M175 245h5l1 3-7 3c0-3 0-3 1-6"/><path fill="#c7d6df" d="M348 197c2.43 2.43 2.763 3.599 3 7-1.312 2.813-1.312 2.813-3 5h-2z"/><path fill="#5c6063" d="m207 192 10 1-1 3h-7z"/><path fill="#201a18" d="m262 188 1 2h2l3 7-2 2c-4-6.5-4-6.5-4-11"/><path fill="#bdd3df" d="m284 176 4 1-7 7-1-3c1.938-2.687 1.938-2.687 4-5"/><path fill="#5b646d" d="M449 106c3.875 4.75 3.875 4.75 5 7h-2v2l-3-1z"/><path fill="#25343e" d="m318 80 6 1c-1.75 2-1.75 2-4 4h-4z"/><path fill="#2a2f3a" d="m309 400 1 3h2l1 5h-2v2l-2-1z"/><path fill="#cadce5" d="M333 370c1.563 1.688 1.563 1.688 3 4-.312 2.75-.312 2.75-1 5l-4-1z"/><path fill="#37393e" d="m418 349 3 1c-.561 3.254-1.456 4.88-4 7h-1c.875-6.875.875-6.875 2-8"/><path fill="#c3cdd5" d="m149 340 1.672.465c2.531.582 4.992.86 7.578 1.098l2.703.253L163 342v1h-15z"/><path fill="#2c2a2f" d="m144 333 2 1c1.537.225 3.08.408 4.625.563l2.477.253L155 335c-2 2-2 2-4.164 2.195l-2.461-.07-2.477-.055L144 337z"/><path fill="#131e29" d="M165 332c2 2 2 2 2 5h-2l-1 4-.312-1.937L163 337l-3-1z"/><path fill="#d3a075" d="M264 231h2c.93 2.606 1.15 3.642.063 6.25L265 239h-4v-2l3-1-1-2z"/><path fill="#211d19" d="M251 219h1l2 8-2 1v-2l-6 1 2-6 1 4h2z"/><path fill="#c5a58a" d="m231 201 2 1a141 141 0 0 1-5 5h-2v2h-3c1.117-3.35 1.747-3.793 4.563-5.687l1.94-1.325z"/><path fill="#2e2a29" d="m225 199 3 1c.688 2.063.688 2.063 1 4l-5 2c-.625-2.375-.625-2.375-1-5z"/><path fill="#556773" d="m287 187 2 1-1 3 1 3-4 1v-2l-2-1z"/><path fill="#a2988d" d="M223 174c1.255 3.766.37 5.372-1 9h-2l-2-4z"/><path fill="#283948" d="M454 145h4c1.125 6.75 1.125 6.75 0 9-4-6.75-4-6.75-4-9"/><path fill="#dbd7d0" d="M102 408c3.534 1.963 6.245 4.04 9 7-4.288-.476-6.266-1.659-9-5z"/><path fill="#19212b" d="m81 361 1 2 3 1 3 2c-6.625.25-6.625.25-10-2l1-2 2 1z"/><path fill="#dfecf1" d="M153 339h9v2l-10 1z"/><path fill="#293644" d="M103 332h1l1 11-4-3c.875-6.875.875-6.875 2-8"/><path fill="#6c7884" d="M311 335h7v3l-6 1z"/><path fill="#e6ebec" d="m194 183 1 4-2 1v2h-2l-1 2c-.25-2.25-.25-2.25 0-5 2-2.312 2-2.312 4-4"/><path fill="#192531" d="m203 96 2 1v2l3 1-4 4-2-2c.375-3.125.375-3.125 1-6"/><path fill="#505a63" d="M376 38c3.27.564 4.826 1.5 7 4l-3 4-1-5h-2z"/><path fill="#3d4a58" d="m373 449 4 5-3 3-2-1c-.625-2.062-.625-2.062-1-4h2z"/><path fill="#3d4954" d="m381 448 3 2-5 4-2-1c1.75-3.875 1.75-3.875 4-5"/><path fill="#39231d" d="m312 375 3 1v5l-3-1-1 2c-.043-2-.04-4 0-6z"/><path fill="#d3e5eb" d="m347 324 1 2c-3.446 4.8-3.446 4.8-6.25 5.813L340 332l-1-2z"/><path fill="#29333f" d="m169 250 1 3c-2.312 3.188-2.312 3.188-5 6h-2c1.312-3.937 2.92-6.227 6-9"/><path fill="#958980" d="M220 183h1l2 9-5 4c0-2.915.409-5.342 1-8.187l.563-2.731z"/><path fill="#c58f67" d="M254 183v1l-3.312.375c-3.762.38-3.762.38-6.688 2.625-2.187-.375-2.187-.375-4-1 5.01-3.006 8.327-3.293 14-3"/><path fill="#8a8885" d="M267 176h1c.25 1.434.474 2.873.688 4.313l.386 2.425C269 185 269 185 267.52 186.793L266 188q-.04-2.437-.062-4.875l-.036-2.742C266 178 266 178 267 176"/><path fill="#92867e" d="M269 171h3l-2 7h-2c-.625-1.812-.625-1.812-1-4z"/><path fill="#a0968c" d="M304 168h1c.313 2.313.313 2.313 0 5-2.5 1.813-2.5 1.813-5 3 0-3.919 1.45-5.141 4-8"/><path fill="#7a5f4d" d="M338 162c1.46 2.647 2 3.894 2 7l-8 2v-2l2.438-.687L337 167c.894-2.548.894-2.548 1-5"/><path fill="#959794" d="M281 161h14v1l-3.375.938c-3.42.885-3.42.885-5.625 2.062l-1-2z"/><path fill="#a78164" d="M220 103v2l-8 3v-2l2-1-1-2c2.667-1.333 4.167-.671 7 0"/><path fill="#262120" d="M166 85c3.04-.293 3.04-.293 6.625-.187l3.602.082L179 85v1l-15 2z"/><path fill="#5d646a" d="M408 62c3.914 1.27 5.79 2.512 8 6-3 0-3 0-6-2v-2h-2z"/><path fill="#222122" d="M190 411h2l1 6h-6l1-3v2l2-1z"/><path fill="#c0d1da" d="M175 402h9c-.375 2.938-.375 2.938-1 6l-2 1 1-5-7-1z"/><path fill="#2a3947" d="m426 391 1 3-6 6-2-1z"/><path fill="#2d353f" d="M21 346h2v4l2 1a78 78 0 0 1 2 5h-3z"/><path fill="#bc8966" d="M157 278h2c-1.37 3.995-3.257 6.8-6 10 .563-3.941 1.68-6.75 4-10"/><path fill="#856049" d="M171 264h1v8h-3c-.125-2.875-.125-2.875 0-6z"/><path fill="#352d2f" d="m340 212 1 3h-2l-1 4h-2v2h-2c1.875-4.75 1.875-4.75 3-7h3z"/><path fill="#e2e4e2" d="M222 163c-1.393 3.367-2.979 4.986-6 7l-1-3c4.75-4 4.75-4 7-4"/><path fill="#181f2d" d="m357 129 3 1a101 101 0 0 1-2 6l-2 1c-.625-2.312-.625-2.312-1-5z"/><path fill="#515a63" d="m457 119 4 5-1 2c-2 0-2 0-3.625-1.5L455 123c1-3 1-3 2-4"/><path fill="#26272a" d="M241 93c3.188.313 3.188.313 6 1v2h-9z"/><path fill="#eee5dd" d="M94 401c3.366 1.443 5.51 3.333 8 6l-1 2a418 418 0 0 1-3.5-2.875l-1.969-1.617L94 403z"/><path fill="#2a2929" d="M318 386h5l-5 5-2-1z"/><path fill="#282522" d="M238 212c3.438.813 3.438.813 7 2l1 3c-3.796-.542-5.472-2.201-8-5"/><path fill="#8d6b53" d="M220 208h3v2c-3.314 2.21-4.345 2.225-8.187 2.125l-2.731-.055L210 212v-1h9z"/><path fill="#30333a" d="m343 198 1 3 3-1 1 4-1-2-4 3v-2h-2c1-3 1-3 2-5"/><path fill="#968c83" d="M295 179h2c-.586 6.152-.586 6.152-1 8l-2 1c-.625-3.375-.625-3.375-1-7z"/><path fill="#454f58" d="M483 179c1.46 2.647 2 3.894 2 7l-5-2 1-3h2z"/><path fill="#22242c" d="m353 101 8 3-1 2c-2.062.625-2.062.625-4 1-3-3.75-3-3.75-3-6"/><path fill="#97694c" d="M346 97c4.875 3.625 4.875 3.625 6 7-1.875-.312-1.875-.312-4-1-2-3-2-3-2-6"/><path fill="#9d806d" d="M275 99c3.95.551 7.35 1.39 11 3-4.002 1.6-7.046.293-11-1z"/><path fill="#49525a" d="m111 40 1 3-6 4v-4c2.5-1.75 2.5-1.75 5-3"/><path fill="#263744" d="M384 431c0 3.106-.54 4.353-2 7h-3c.398-2.886.79-3.822 3.063-5.75z"/><path fill="#768088" d="m404 430 3 3-4 3-2-3z"/><path fill="#0f1b27" d="m187 400-1 4h-2v-2h-9v-1q2.156-.253 4.313-.5l2.425-.281C184 400 184 400 187 400"/><path fill="#222325" d="M332 384c2.516.974 3.74 1.462 4.938 3.938C337 390 337 390 335.563 391.75L334 393l-.437-3.375c-.347-3.446-.347-3.446-1.563-5.625"/><path fill="#2b2c36" d="m142 328 3 1-2 4c-1.84 0-3.396-1.172-5-2 1.813-1.562 1.813-1.562 4-3"/><path fill="#804931" d="M122 326h5l-1 4h-4z"/><path fill="#2e3842" d="m152 270 4 1v4l-6-1z"/><path fill="#d3e5ec" d="m342 264 7 2-1.437 1.313c-1.8 1.71-1.8 1.71-2.563 4.687-3-4.625-3-4.625-3-8"/><path fill="#835f49" d="M304 160h4v2h2l1 3h-3c-2.187-2.5-2.187-2.5-4-5"/><path fill="#1f1f23" d="m165 153 1 3-2 2h-5l-1 2v-3z"/><path fill="#29323e" d="m340 145 3 1 1 3h-2l-1 2v-2l-3-1z"/><path fill="#2a313c" d="m158 143 4 2-3 4-3-2z"/><path fill="#e4f2f9" d="m364 121 2 1c.625 2.063.625 2.063 1 4l-3 2c-1-1-1-1-1.125-3.5C363 122 363 122 364 121"/><path fill="#29323d" d="m226 92 2 1v2l1.875-1.062L232 93l2 1v2c-3.375.125-3.375.125-7 0l-2-2z"/><path fill="#bc8b69" d="M160 91h9a105 105 0 0 1-9 4z"/><path fill="#1b262f" d="m76 349 3 1v2l-2 1c-.656 2.527-.656 2.527-1 5h-1c-.098-6.152-.098-6.152 0-8z"/><path fill="#614d49" d="M175 337c2.139 2.139 2.427 3.133 3 6h-8l1.938-.75c2.25-1.066 2.25-1.066 2.812-3.375z"/><path fill="#6f5044" d="m325 338 4 1v3h-6z"/><path fill="#442516" d="m117 321 4 1-1 3-5 1z"/><path fill="#d5e7ef" d="M29 317c2 3 2 3 2 6l-3 1c-.625-2.375-.625-2.375-1-5z"/><path fill="#23303a" d="M407 315c3 1 3 1 4.188 3.063L412 320l-4 1z"/><path fill="#cbdde7" d="m468 303 2 1-1 7h-2l1-6-2-1z"/><path fill="#d2e3eb" d="M122 296c2.139 2.139 2.427 3.133 3 6l-5-1-1-3h3z"/><path fill="#29313b" d="m174 232 4 2-1 3-4-1z"/><path fill="#283342" d="m5 215 1 2c-.937 2.625-.937 2.625-2 5l-2-2v-4z"/><path fill="#292323" d="m217 204 3 1v2l2 1c-2.957 1.478-5.742 1.06-9 1v-1h5z"/><path fill="#948e89" d="m227 168 3 3-1 3-5 1 .938-1.812c1.164-2.278 1.164-2.278 2.062-5.188"/><path fill="#8f847d" d="m274 165 4 2c-2.565 2.565-4.477 2.54-8 3z"/><path fill="#9b9c99" d="M209 161h8l-8 4z"/><path fill="#7a5c4d" d="M168 149c1.467 3.815.433 6.29-1 10l-2-1c1.875-6.75 1.875-6.75 3-9"/><path fill="#312f33" d="M164 145h2l2 6-3 2z"/><path fill="#50575f" d="M32 124c1 3 1 3 .25 5.625C31 132 31 132 28 133c1.059-3.403 2.009-6.014 4-9"/><path fill="#34221a" d="m201 103 7 2-3 3-3-1c-.687-2.062-.687-2.062-1-4"/><path fill="#d0e3eb" d="M358 96c1.938.313 1.938.313 4 1l1 3-4 1z"/><path fill="#b78967" d="m310 92 3 2-2 4-4-2z"/><path fill="#aa876c" d="M158 91h2l-1 5-3 1c.875-4.875.875-4.875 2-6"/><path fill="#d1e0e7" d="M153 81c2.867.573 3.861.861 6 3l-4 2-2-2z"/><path fill="#656c72" d="M365 31c3.46 1.25 6.147 2.675 9 5-3.375-.25-3.375-.25-7-1-1.437-2.062-1.437-2.062-2-4"/><path fill="#303843" d="m123 33 2 1-2 4h-5c1-3 1-3 2.938-4.25z"/><path fill="#c6d8e2" d="m285 19 9 1v1l-2.875.438c-3.018.391-3.018.391-5.125 1.562z"/></svg>