<svg xmlns="http://www.w3.org/2000/svg" xmlns:xlink="http://www.w3.org/1999/xlink" width="280" zoomAndPan="magnify" viewBox="0 0 210 209.999996" height="280" preserveAspectRatio="xMidYMid meet" version="1.0"><defs><clipPath id="cca5542f7b"><path d="M 14 99 L 196 99 L 196 205.984375 L 14 205.984375 Z M 14 99 " clip-rule="nonzero"/></clipPath></defs><path fill="#99aab5" d="M 18.953125 111.410156 L 31.6875 92.542969 L 48.671875 109.527344 L 71.316406 98.203125 L 88.296875 115.1875 L 110.941406 81.222656 L 133.585938 98.203125 L 150.566406 92.542969 L 161.890625 109.527344 L 178.871094 92.542969 L 190.191406 115.1875 L 178.871094 154.8125 L 116.601562 183.117188 L 54.332031 171.796875 L 20.367188 137.832031 Z M 18.953125 111.410156 " fill-opacity="1" fill-rule="nonzero"/><path fill="#ffcc4d" d="M 172.960938 85.253906 C 173.082031 83.628906 173.210938 82.003906 173.210938 80.351562 C 173.210938 46.707031 148.734375 18.851562 116.625 13.445312 C 123.355469 11.972656 128.121094 10.5625 122.261719 7.632812 C 115.949219 4.472656 109.640625 8.359375 105.285156 12.421875 L 105.273438 12.421875 C 100.921875 8.359375 94.613281 4.472656 88.296875 7.632812 C 82.4375 10.5625 87.203125 11.972656 93.9375 13.4375 C 61.832031 18.84375 37.347656 46.703125 37.347656 80.351562 C 37.347656 82.003906 37.480469 83.628906 37.597656 85.257812 C 34.871094 122.621094 1.917969 177.457031 105.28125 177.457031 C 208.640625 177.457031 175.691406 122.621094 172.960938 85.253906 Z M 172.960938 85.253906 " fill-opacity="1" fill-rule="nonzero"/><path fill="#f4900c" d="M 122.261719 81.222656 C 122.261719 90.601562 114.660156 92.542969 105.28125 92.542969 C 95.898438 92.542969 88.296875 90.601562 88.296875 81.222656 C 88.296875 71.84375 95.898438 64.238281 105.28125 64.238281 C 114.660156 64.238281 122.261719 71.84375 122.261719 81.222656 Z M 122.261719 81.222656 " fill-opacity="1" fill-rule="nonzero"/><path fill="#662113" d="M 76.976562 67.070312 C 76.976562 67.628906 76.921875 68.179688 76.8125 68.726562 C 76.703125 69.273438 76.542969 69.804688 76.328125 70.320312 C 76.117188 70.835938 75.855469 71.324219 75.542969 71.789062 C 75.234375 72.25 74.882812 72.679688 74.488281 73.074219 C 74.09375 73.46875 73.664062 73.820312 73.203125 74.128906 C 72.738281 74.441406 72.25 74.703125 71.734375 74.914062 C 71.21875 75.128906 70.6875 75.289062 70.140625 75.398438 C 69.59375 75.507812 69.042969 75.5625 68.484375 75.5625 C 67.925781 75.5625 67.375 75.507812 66.828125 75.398438 C 66.28125 75.289062 65.75 75.128906 65.234375 74.914062 C 64.71875 74.703125 64.230469 74.441406 63.765625 74.128906 C 63.304688 73.820312 62.875 73.46875 62.480469 73.074219 C 62.085938 72.679688 61.734375 72.25 61.425781 71.789062 C 61.113281 71.324219 60.851562 70.835938 60.640625 70.320312 C 60.425781 69.804688 60.265625 69.273438 60.15625 68.726562 C 60.046875 68.179688 59.992188 67.628906 59.992188 67.070312 C 59.992188 66.511719 60.046875 65.960938 60.15625 65.414062 C 60.265625 64.867188 60.425781 64.335938 60.640625 63.820312 C 60.851562 63.304688 61.113281 62.816406 61.425781 62.351562 C 61.734375 61.890625 62.085938 61.460938 62.480469 61.066406 C 62.875 60.671875 63.304688 60.320312 63.765625 60.011719 C 64.230469 59.699219 64.71875 59.4375 65.234375 59.226562 C 65.75 59.011719 66.28125 58.851562 66.828125 58.742188 C 67.375 58.632812 67.925781 58.578125 68.484375 58.578125 C 69.042969 58.578125 69.59375 58.632812 70.140625 58.742188 C 70.6875 58.851562 71.21875 59.011719 71.734375 59.226562 C 72.25 59.4375 72.738281 59.699219 73.203125 60.011719 C 73.664062 60.320312 74.09375 60.671875 74.488281 61.066406 C 74.882812 61.460938 75.234375 61.890625 75.542969 62.351562 C 75.855469 62.816406 76.117188 63.304688 76.328125 63.820312 C 76.542969 64.335938 76.703125 64.867188 76.8125 65.414062 C 76.921875 65.960938 76.976562 66.511719 76.976562 67.070312 Z M 76.976562 67.070312 " fill-opacity="1" fill-rule="nonzero"/><path fill="#662113" d="M 150.566406 67.070312 C 150.566406 67.628906 150.511719 68.179688 150.402344 68.726562 C 150.296875 69.273438 150.132812 69.804688 149.921875 70.320312 C 149.707031 70.835938 149.445312 71.324219 149.136719 71.789062 C 148.828125 72.25 148.472656 72.679688 148.078125 73.074219 C 147.6875 73.46875 147.257812 73.820312 146.792969 74.128906 C 146.328125 74.441406 145.839844 74.703125 145.324219 74.914062 C 144.808594 75.128906 144.277344 75.289062 143.730469 75.398438 C 143.183594 75.507812 142.632812 75.5625 142.074219 75.5625 C 141.519531 75.5625 140.964844 75.507812 140.417969 75.398438 C 139.871094 75.289062 139.339844 75.128906 138.828125 74.914062 C 138.3125 74.703125 137.820312 74.441406 137.359375 74.128906 C 136.894531 73.820312 136.464844 73.46875 136.070312 73.074219 C 135.675781 72.679688 135.324219 72.25 135.015625 71.789062 C 134.707031 71.324219 134.445312 70.835938 134.230469 70.320312 C 134.015625 69.804688 133.855469 69.273438 133.746094 68.726562 C 133.640625 68.179688 133.585938 67.628906 133.585938 67.070312 C 133.585938 66.511719 133.640625 65.960938 133.746094 65.414062 C 133.855469 64.867188 134.015625 64.335938 134.230469 63.820312 C 134.445312 63.304688 134.707031 62.816406 135.015625 62.351562 C 135.324219 61.890625 135.675781 61.460938 136.070312 61.066406 C 136.464844 60.671875 136.894531 60.320312 137.359375 60.011719 C 137.820312 59.699219 138.3125 59.4375 138.828125 59.226562 C 139.339844 59.011719 139.871094 58.851562 140.417969 58.742188 C 140.964844 58.632812 141.519531 58.578125 142.074219 58.578125 C 142.632812 58.578125 143.183594 58.632812 143.730469 58.742188 C 144.277344 58.851562 144.808594 59.011719 145.324219 59.226562 C 145.839844 59.4375 146.328125 59.699219 146.792969 60.011719 C 147.257812 60.320312 147.6875 60.671875 148.078125 61.066406 C 148.472656 61.460938 148.828125 61.890625 149.136719 62.351562 C 149.445312 62.816406 149.707031 63.304688 149.921875 63.820312 C 150.132812 64.335938 150.296875 64.867188 150.402344 65.414062 C 150.511719 65.960938 150.566406 66.511719 150.566406 67.070312 Z M 150.566406 67.070312 " fill-opacity="1" fill-rule="nonzero"/><g clip-path="url(#cca5542f7b)"><path fill="#99c5ff" d="M 178.871094 143.492188 L 161.890625 137.832031 L 139.246094 171.796875 L 122.261719 143.492188 L 110.941406 154.8125 L 88.296875 143.492188 L 71.316406 166.136719 L 54.332031 132.171875 L 37.347656 143.492188 L 18.703125 99.535156 C 16.117188 107.171875 14.707031 115.277344 14.707031 123.679688 C 14.707031 169.015625 55.261719 205.761719 105.28125 205.761719 C 155.300781 205.761719 195.855469 169.015625 195.855469 123.679688 C 195.855469 116.636719 194.773438 109.84375 192.925781 103.316406 Z M 178.871094 143.492188 " fill-opacity="1" fill-rule="nonzero"/></g></svg>